#N canvas 42 23 1638 1005 10;
#X declare -lib ggee;
#N canvas 42 23 1638 1005 amot_patch 0;
#X obj 1401 1217 array define grainArray;
#X obj 1405 1144 soundfiler;
#X floatatom 1405 1164 14 0 0 0 - - -;
#X obj 414 2066 hsl 128 15 0.5 1 0 0 empty empty empty -2 -8 0 10 -191407
-1 -1 0 1;
#X obj 413 1958 s grainDur;
#X obj 411 2088 s grainSpeed;
#X msg 1495 984 \; pd dsp 1 \;;
#X msg 1495 1033 \; pd dsp 0 \;;
#X msg 111 2140 next \$1;
#X obj 115 1965 phasor~;
#X obj 115 1998 *~;
#X obj 111 2092 snapshot~;
#X obj 212 1456 r fileSamples;
#X obj 1405 1183 s fileSamples;
#X floatatom 212 1503 12 0 0 0 - - -;
#X obj 396 1645 tgl 15 0 empty empty empty 17 7 0 10 -262144 -1 -1
0 1;
#X obj 396 1673 metro 125;
#X obj 115 1591 *;
#X obj 159 1565 t b f;
#X floatatom 115 1565 5 0 0 0 - - -;
#X obj 115 1503 expr $f2 / $f1;
#X obj 304 1478 samplerate~;
#X obj 306 1456 loadbang;
#X obj 368 1456 bng 15 250 50 0 empty empty empty 17 7 0 10 -262144
-1 -1;
#X obj 395 1694 random 10;
#X obj 396 1737 + 50;
#X floatatom 422 1646 10 0 0 0 - - -;
#X text 438 1844 grainDur;
#X text 411 2042 grainSpeed;
#X obj 413 1918 random 10;
#X obj 413 1938 + 200;
#X msg 297 1939 0;
#X text 309 1542 playback Rate;
#X obj 110 2179 clone grainModule 16;
#X obj 952 2050 hsl 128 15 0.5 1 0 0 empty empty empty -2 -8 0 10 -191407
-1 -1 6200 1;
#X msg 659 2202 next \$1;
#X obj 667 1955 phasor~;
#X obj 666 2017 *~;
#X obj 657 2126 snapshot~;
#X floatatom 761 1503 12 0 0 0 - - -;
#X obj 961 1683 tgl 15 0 empty empty empty 17 7 0 10 -262144 -1 -1
0 1;
#X obj 961 1703 metro 125;
#X obj 666 1591 *;
#X obj 710 1565 t b f;
#X floatatom 666 1565 5 0 0 0 - - -;
#X obj 664 1503 expr $f2 / $f1;
#X obj 854 1478 samplerate~;
#X obj 854 1456 loadbang;
#X obj 918 1456 bng 15 250 50 0 empty empty empty 17 7 0 10 -262144
-1 -1;
#X obj 964 1727 random 10;
#X obj 964 1747 + 50;
#X floatatom 990 1679 5 0 0 0 - - -;
#X text 946 2026 grainSpeed;
#X obj 958 1919 random 10;
#X obj 958 1939 + 200;
#X msg 851 1934 0;
#X text 852 1542 playback Rate;
#X obj 660 2233 clone grainModule_ch2 16;
#X obj 950 2076 s grainSpeed_ch2;
#X obj 958 1962 s grainDur_ch2;
#X obj 162 1543 hsl 128 15 -1 1 0 0 empty empty empty -2 -8 0 10 -4034
-1 -1 12573 1;
#X obj 114 2115 hsl 128 15 0 2.82681e+07 0 0 empty empty empty -2 -8
0 10 -258113 -1 -1 0 1;
#X msg 296 1503 range 0 \$1;
#X obj 374 1503 s maxSample;
#X obj 157 1938 hsl 128 15 0 1 0 0 empty empty empty -2 -8 0 10 -257985
-1 -1 0 1;
#X obj 660 2174 hsl 128 15 0 2.82681e+07 0 0 empty empty empty -2 -8
0 10 -258113 -1 -1 0 1;
#X obj 711 1543 hsl 128 15 -1 1 0 0 empty empty empty -2 -8 0 10 -4034
-1 -1 6200 1;
#X obj 716 1934 hsl 128 15 0 1 0 0 empty empty empty -2 -8 0 10 -257985
-1 -1 12700 1;
#X obj 140 1768 bng 15 250 50 0 empty empty empty 17 7 0 10 -262144
-1 -1;
#X obj 146 1866 +;
#X obj 262 2115 r maxSample;
#X obj 444 1863 hsl 128 15 0 44100 0 0 empty empty empty -2 -8 0 10
-261234 -1 -1 0 1;
#X text 156 1917 samplePos;
#X obj 466 1899 hsl 128 15 0 44100 0 0 empty empty empty -2 -8 0 10
-203904 -1 -1 0 1;
#X msg 506 1843 range 0 \$1;
#X text 506 1882 random graiDur;
#X text 1009 1841 grainDur;
#X obj 1015 1860 hsl 128 15 0 441 0 0 empty empty empty -2 -8 0 10
-261234 -1 -1 6400 1;
#X obj 1015 1896 hsl 128 15 0 441 0 0 empty empty empty -2 -8 0 10
-203904 -1 -1 10300 1;
#X msg 1077 1840 range 0 \$1;
#X text 1055 1879 random graiDur;
#X msg 506 1817 44100;
#X msg 551 1817 441;
#X obj 414 1889 bng 15 250 50 0 empty empty empty 17 7 0 10 -262144
-1 -1;
#X obj 218 1649 hsl 128 15 0 1 0 0 empty empty empty -2 -8 0 10 -232576
-1 -1 0 1;
#X obj 222 1671 hsl 128 15 0 1 0 0 empty empty empty -2 -8 0 10 -4032
-1 -1 0 1;
#X obj 359 1671 t b;
#X text 219 1648 range for sampling;
#X obj 491 1698 hsl 128 15 0 2000 0 0 empty empty empty -2 -8 0 10
-260264 -1 -1 0 1;
#X obj 496 1735 hsl 128 15 0 2000 0 0 empty empty empty -2 -8 0 10
-167912 -1 -1 0 1;
#X msg 563 1678 range 0 \$1;
#X text 536 1718 random graiRate;
#X text 495 1679 grainRate;
#X obj 1037 1716 hsl 128 15 0 500 0 0 empty empty empty -2 -8 0 10
-260264 -1 -1 2300 1;
#X obj 1035 1751 hsl 128 15 0 500 0 0 empty empty empty -2 -8 0 10
-167912 -1 -1 6400 1;
#X msg 1099 1696 range 0 \$1;
#X text 1075 1734 random graiRate;
#X text 1031 1697 grainRate;
#X obj 140 1744 spigot;
#X obj 219 1720 max;
#X obj 267 1720 min;
#X obj 219 1696 f;
#X obj 267 1696 t b f;
#X obj 219 1744 -;
#X obj 140 1792 random 10000;
#X obj 140 1816 / 10000;
#X obj 704 1788 bng 15 250 50 0 empty empty empty 17 7 0 10 -262144
-1 -1;
#X obj 705 1875 +;
#X obj 777 1658 hsl 128 15 0 1 0 0 empty empty empty -2 -8 0 10 -232576
-1 -1 6600 1;
#X obj 780 1685 hsl 128 15 0 1 0 0 empty empty empty -2 -8 0 10 -4032
-1 -1 8400 1;
#X obj 918 1686 t b;
#X text 778 1641 range for sampling;
#X obj 703 1734 tgl 15 0 empty empty empty 17 7 0 10 -262144 -1 -1
0 1;
#X obj 704 1761 spigot;
#X obj 774 1741 max;
#X obj 829 1740 min;
#X obj 773 1713 f;
#X obj 826 1713 t b f;
#X obj 774 1764 -;
#X floatatom 829 1770 5 0 0 0 - - -;
#X floatatom 884 1767 5 0 0 0 - - -;
#X obj 704 1813 random 10000;
#X obj 705 1843 / 10000;
#X obj 140 1720 tgl 15 0 empty empty empty 17 7 0 10 -262144 -1 -1
0 1;
#X msg 206 1565 0;
#X msg 752 1565 0;
#X obj 1407 1330 soundfiler;
#X floatatom 1407 1350 14 0 0 0 - - -;
#X obj 1407 1369 s fileSamples2;
#X obj 1403 1403 array define grainArray2;
#X obj 761 1456 r fileSamples2;
#X msg 845 1503 range 0 \$1;
#X obj 919 1503 s maxSample2;
#X obj 716 2145 r maxSample2;
#X obj 105 1006 adc~ 1;
#X msg 126 1345 start;
#X msg 171 1346 stop;
#X obj 103 1201 *~;
#X obj 174 1203 *~;
#X obj 173 1005 adc~ 2;
#X obj 102 1240 +~;
#X msg 560 1361 start;
#X msg 609 1362 stop;
#X obj 248 1206 *~;
#X obj 103 1271 +~;
#X obj 844 1006 loadbang;
#X obj 104 1371 tabwrite~ grainArray;
#X obj 543 1383 tabwrite~ grainArray2;
#X obj 291 1055 vsl 15 128 0 1 0 0 empty empty empty 0 -9 0 10 -262144
-1 -1 6350 1;
#X obj 211 1056 vsl 15 128 0 1 0 0 empty empty empty 0 -9 0 10 -262144
-1 -1 6350 1;
#X obj 132 1057 vsl 15 128 0 1 0 0 empty empty empty 0 -9 0 10 -262144
-1 -1 6350 1;
#X obj 249 1005 r~ fb1;
#X obj 545 1001 adc~ 1;
#X obj 543 1196 *~;
#X obj 614 1198 *~;
#X obj 613 1000 adc~ 2;
#X obj 542 1235 +~;
#X obj 694 1195 *~;
#X obj 741 1051 vsl 15 128 0 1 0 0 empty empty empty 0 -9 0 10 -262144
-1 -1 6350 1;
#X obj 651 1051 vsl 15 128 0 1 0 0 empty empty empty 0 -9 0 10 -262144
-1 -1 6350 1;
#X obj 572 1052 vsl 15 128 0 1 0 0 empty empty empty 0 -9 0 10 -262144
-1 -1 6350 1;
#X obj 699 1002 r~ fb2;
#X obj 542 1270 +~;
#X msg 844 1034 0.5;
#X floatatom 175 2092 5 0 0 0 - - -;
#X msg 563 1652 2000;
#X msg 608 1652 500;
#X obj 174 2284 s~ fb1;
#X obj 707 2326 s~ fb2;
#X text 1560 2577 end of patch;
#X obj 1020 1503 loadbang;
#X msg 1020 1524 0.98;
#X obj 1097 1503 bng 15 250 50 0 empty empty empty 17 7 0 10 -262144
-1 -1;
#X obj 137 2385 hsl 64 15 0 1 0 0 empty empty empty -2 -8 0 10 -262144
-1 -1 0 1;
#X obj 101 2388 *~;
#X obj 137 2411 hsl 64 15 0 1 0 0 empty Sknob23 empty -2 -8 0 10 -261234
-1 -1 0 1;
#X obj 214 2411 expr 1 -$f1;
#X obj 134 2437 *~;
#X obj 693 2396 hsl 64 15 0 1 0 0 empty empty empty -2 -8 0 10 -262144
-1 -1 5060 1;
#X obj 658 2420 *~;
#X obj 693 2418 hsl 64 15 0 1 0 0 empty Sknob63 empty -2 -8 0 10 -261234
-1 -1 1240 1;
#X obj 771 2416 expr 1 -$f1;
#X obj 667 2446 *~;
#X obj 101 2362 *~;
#X obj 301 2350 vsl 15 128 0 1 0 0 empty empty empty 0 -9 0 10 -262144
-1 -1 6350 1;
#X obj 658 2352 *~;
#X obj 858 2340 vsl 15 128 0 1 0 0 empty empty empty 0 -9 0 10 -262144
-1 -1 6350 1;
#X obj 343 1249 *~;
#X obj 793 1243 *~;
#X obj 358 1190 tgl 15 0 empty empty empty 17 7 0 10 -262144 -1 -1
0 1;
#X obj 905 1007 bng 15 250 50 0 empty empty empty 17 7 0 10 -262144
-1 -1;
#X obj 1116 2267 loadbang;
#X msg 1115 2323 0.5;
#X obj 1177 2268 bng 15 250 50 0 empty empty empty 17 7 0 10 -262144
-1 -1;
#X obj 1386 906 MIDIMIX;
#X obj 1180 1198 *~;
#X obj 993 1050 vsl 15 128 0 1 0 0 empty empty empty 0 -9 0 10 -262144
-1 -1 6350 1;
#X obj 1049 1198 *~;
#X obj 1049 1229 dac~;
#X obj 359 1157 expr 1 - $f1;
#X obj 808 1186 tgl 15 0 empty empty empty 17 7 0 10 -262144 -1 -1
0 1;
#X obj 809 1153 expr 1 - $f1;
#X obj 128 1301 sel 1;
#X obj 168 1301 sel 0;
#X obj 560 1310 sel 1;
#X obj 600 1310 sel 0;
#X obj 209 1347 s initPhasor1;
#X obj 646 1363 s initPhasor2;
#X obj 299 1918 r initPhasor1;
#X obj 851 1911 r initPhasor2;
#X obj 1389 1080 sel 1;
#X obj 1391 1269 sel 1;
#X obj 234 1565 sel 1;
#X obj 781 1565 sel 1;
#X obj 299 1897 sel 1;
#X obj 849 1884 sel 1;
#X obj 562 1630 sel 1;
#X obj 602 1630 sel 0;
#X obj 506 1798 sel 1;
#X obj 546 1798 sel 0;
#X msg 1100 1668 2000;
#X msg 1145 1668 500;
#X obj 1099 1646 sel 1;
#X obj 1139 1646 sel 0;
#X msg 1079 1817 44100;
#X msg 1124 1817 441;
#X obj 1079 1798 sel 1;
#X obj 1119 1798 sel 0;
#X obj 219 1768 * 10000;
#X obj 774 1784 * 10000;
#X obj 523 1660 *;
#X obj 496 1659 *;
#X obj 471 1822 *;
#X obj 444 1821 *;
#X obj 254 1524 * 2;
#X obj 214 1524 - 0.5;
#X obj 803 1524 * 2;
#X obj 763 1524 - 0.5;
#X obj 1064 1674 *;
#X obj 1037 1673 *;
#X obj 1041 1825 *;
#X obj 1014 1824 *;
#X obj 427 2000 * 0.5;
#X obj 467 2000 + 0.5;
#X obj 1003 2010 * 0.5;
#X obj 1043 2010 + 0.5;
#X obj 99 2473 s~ out1ToM1;
#X obj 181 2473 s~ out1ToM2;
#X obj 659 2469 s~ out2ToM1;
#X obj 732 2469 s~ out2ToM2;
#X obj 343 1278 s~ in1ToM1;
#X obj 794 1273 s~ in2ToM2;
#X obj 1045 1053 r~ out1ToM1;
#X obj 1063 1078 r~ out2ToM1;
#X obj 1191 1050 r~ out1ToM2;
#X obj 1214 1071 r~ out2ToM2;
#X obj 1091 1100 r~ in1ToM1;
#X obj 1237 1096 r~ in2ToM2;
#X obj 1048 1127 +~;
#X obj 1049 1159 +~;
#X obj 1176 1131 +~;
#X obj 1177 1163 +~;
#X obj 1327 1616 r BaLe;
#X obj 1456 1615 r BaRi;
#X obj 1388 929 r solo;
#X obj 1389 971 sel 1;
#X obj 1389 1021 sel 0;
#X obj 1326 1683 soundfiler;
#X obj 1394 1503 sel 1;
#X obj 128 1322 t b b;
#X obj 560 1331 t b b;
#X msg 1407 1292 read -resize empty.wav grainArray2;
#X msg 1405 1106 read -resize empty.wav grainArray;
#X obj 1649 1139 soundfiler;
#X floatatom 1649 1159 14 0 0 0 - - -;
#X obj 1649 1178 s fileSamples;
#X obj 1651 1325 soundfiler;
#X floatatom 1651 1345 14 0 0 0 - - -;
#X obj 1651 1364 s fileSamples2;
#X msg 1649 1101 read -resize empty.wav out1;
#X msg 1651 1287 read -resize empty.wav out2;
#X obj 1645 1212 array define out1;
#X obj 1647 1398 array define out2;
#X msg 1326 1641 write -wave rec1 out1;
#X msg 1453 1662 write -wave rec2 out2;
#X msg 1041 1285 start;
#X msg 1087 1267 stop;
#X msg 1178 1286 start;
#X msg 1225 1262 stop;
#X obj 1019 1311 tabwrite~ out1;
#X obj 1161 1308 tabwrite~ out2;
#X obj 1391 1243 sel 0;
#X obj 405 2287 log 2;
#X obj 451 2221 expr 1 / $f1;
#X obj 403 2221 random;
#X obj 404 2245 *;
#X obj 405 2267 + 1;
#X obj 447 2200 + 1;
#X obj 415 2107 hsl 128 15 2 64 0 0 empty empty empty -2 -8 0 10 -191407
-1 -1 0 1;
#X obj 446 2176 int;
#X obj 401 2200 spigot;
#X obj 401 2176 tgl 15 0 empty empty empty 17 7 0 10 -262144 -1 -1
0 1;
#X obj 415 2131 t b;
#X msg 415 2151 1;
#X obj 448 2131 t b;
#X msg 448 2151 0;
#X obj 425 2019 * 64;
#X obj 1004 1990 * 64;
#X obj 944 2281 log 2;
#X obj 990 2210 expr 1 / $f1;
#X obj 942 2210 random;
#X obj 943 2234 *;
#X obj 944 2256 + 1;
#X obj 986 2189 + 1;
#X obj 954 2096 hsl 128 15 2 64 0 0 empty empty empty -2 -8 0 10 -191407
-1 -1 12700 1;
#X floatatom 984 2267 5 0 0 0 - - -;
#X obj 985 2165 int;
#X obj 940 2189 spigot;
#X obj 940 2165 tgl 15 0 empty empty empty 17 7 0 10 -262144 -1 -1
1 1;
#X obj 954 2120 t b;
#X msg 954 2140 1;
#X obj 987 2120 t b;
#X msg 987 2140 0;
#X obj 384 2149 bng 15 250 50 0 empty empty empty 17 7 0 10 -262144
-1 -1;
#X floatatom 478 2135 5 0 0 0 - - -;
#X obj 405 2307 * 0.5;
#X obj 405 2327 + 0.5;
#X floatatom 405 2347 5 0 0 0 - - -;
#X obj 954 2309 * 0.5;
#X obj 954 2329 + 0.5;
#X floatatom 954 2349 5 0 0 0 - - -;
#X obj 916 2220 bng 15 250 50 0 empty empty empty 17 7 0 10 -262144
-1 -1;
#X obj 204 1965 bng 15 250 50 0 empty empty empty 17 7 0 10 -262144
-1 -1;
#X obj 742 1960 bng 15 250 50 0 empty empty empty 17 7 0 10 -262144
-1 -1;
#X obj 138 2023 playBack;
#X obj 109 2284 +~;
#X obj 186 2043 hsl 128 15 0 1 0 0 empty Sknob13 empty -2 -8 0 10 -262144
-1 -1 0 1;
#X obj 183 2063 expr 1 - $f1;
#X obj 186 2140 hsl 128 15 0 1 0 0 empty empty empty -2 -8 0 10 -262144
-1 -1 0 1;
#X obj 138 2043 *~;
#X obj 110 2205 *~;
#X obj 699 2040 playBack2;
#X obj 781 2054 hsl 128 15 0 1 0 0 empty Sknob53 empty -2 -8 0 10 -262144
-1 -1 6400 1;
#X obj 778 2078 expr 1 - $f1;
#X obj 777 2199 hsl 128 15 0 1 0 0 empty empty empty -2 -8 0 10 -262144
-1 -1 6300 1;
#X obj 698 2076 *~;
#X obj 659 2264 *~;
#X obj 660 2294 +~;
#X text 1438 1078 Put an empty.wav file of the lenght you want in the
folder;
#X obj 133 1032 r Nfader1;
#X obj 212 1032 r Nfader2;
#X obj 293 1031 r Nfader3;
#X obj 573 1027 r Nfader5;
#X obj 652 1027 r Nfader6;
#X obj 742 1027 r Nfader7;
#X obj 993 1023 r NfaderM;
#X obj 299 2320 r Nfader4;
#X obj 858 2310 r Nfader8;
#X obj 156 1897 r Sknob11;
#X obj 140 1648 r Sknob12;
#X obj 140 1672 r Sknob22;
#X obj 159 1524 r Sknob21;
#X obj 491 1607 r Sknob33;
#X obj 504 1630 r Sknob43;
#X obj 439 1769 r Sknob32;
#X obj 452 1792 r Sknob42;
#X obj 372 2000 r Sknob31;
#X obj 370 2019 r Sknob41;
#X obj 708 1524 r Sknob61;
#X obj 695 1657 r Sknob52;
#X obj 698 1685 r Sknob62;
#X obj 724 1904 r Sknob51;
#X obj 1032 1621 r Sknob73;
#X obj 1045 1644 r Sknob83;
#X obj 1011 1777 r Sknob72;
#X obj 1024 1800 r Sknob82;
#X obj 949 1990 r Sknob81;
#X obj 948 2010 r Sknob71;
#X obj 1046 60 declare -lib ggee;
#X obj 601 522 ggee/image interface_2chs_pd.gif;
#X obj 172 749 vsl 15 128 0 1 0 0 Nfader1 fader1 empty 0 -9 0 10 -249865
-1 -1 0 1;
#X obj 278 749 vsl 15 128 0 1 0 0 Nfader2 fader2 empty 0 -9 0 10 -249865
-1 -1 0 1;
#X obj 384 749 vsl 15 128 0 1 0 0 Nfader3 fader3 empty 0 -9 0 10 -249865
-1 -1 0 1;
#X obj 493 749 vsl 15 128 0 1 0 0 Nfader4 fader4 empty 0 -9 0 10 -159808
-1 -1 0 1;
#X obj 592 749 vsl 15 128 0 1 0 0 Nfader5 fader5 empty 0 -9 0 10 -4096
-1 -1 0 1;
#X obj 700 749 vsl 15 128 0 1 0 0 Nfader6 fader6 empty 0 -9 0 10 -4096
-1 -1 0 1;
#X obj 808 749 vsl 15 128 0 1 0 0 Nfader7 fader7 empty 0 -9 0 10 -4096
-1 -1 0 1;
#X obj 914 749 vsl 15 128 0 1 0 0 Nfader8 fader8 empty 0 -9 0 10 -4160
-1 -1 0 1;
#X obj 1018 749 vsl 15 128 0 1 0 0 NfaderM faderM empty 0 -9 0 10 -257985
-1 -1 0 1;
#X obj 174 663 tgl 15 0 srec1 rec1 empty 17 7 0 10 -258113 -1 -1 0
1;
#X obj 280 663 tgl 15 0 srec2 2 empty 17 7 0 10 -258113 -1 -1 0 1;
#X obj 385 663 tgl 15 0 srec3 rec3 empty 17 7 0 10 -258113 -1 -1 0
1;
#X obj 493 663 tgl 15 0 srec4 rec4 empty 17 7 0 10 -258113 -1 -1 0
1;
#X obj 597 663 tgl 15 0 srec5 rec5 empty 17 7 0 10 -258113 -1 -1 0
1;
#X obj 701 663 tgl 15 0 srec6 rec6 empty 17 7 0 10 -258113 -1 -1 0
1;
#X obj 809 663 tgl 15 0 srec7 rec7 empty 17 7 0 10 -258113 -1 -1 0
1;
#X obj 914 663 tgl 15 0 srec8 rec8 empty 17 7 0 10 -258113 -1 -1 0
1;
#X obj 173 598 tgl 15 0 smute1 mute1 empty 17 7 0 10 -4034 -1 -1 1
1;
#X obj 280 598 tgl 15 0 smute2 mute2 empty 17 7 0 10 -4034 -1 -1 0
1;
#X obj 386 598 tgl 15 0 smute3 mute3 empty 17 7 0 10 -4034 -1 -1 0
1;
#X obj 492 598 tgl 15 0 smute4 mute4 empty 17 7 0 10 -4034 -1 -1 0
1;
#X obj 594 598 tgl 15 0 smute5 mute5 empty 17 7 0 10 -4034 -1 -1 1
1;
#X obj 702 598 tgl 15 0 smute6 mute6 empty 17 7 0 10 -4034 -1 -1 0
1;
#X obj 809 598 tgl 15 0 smute7 mute7 empty 17 7 0 10 -4034 -1 -1 0
1;
#X obj 915 598 tgl 15 0 smute8 mute8 empty 17 7 0 10 -4034 -1 -1 0
1;
#X obj 1022 596 tgl 15 0 ssolo solo empty 17 7 0 10 -257985 -1 -1 0
1;
#X obj 1021 480 tgl 15 0 sBaRi BaRi empty 17 7 0 10 -257985 -1 -1 0
1;
#X obj 1021 344 tgl 15 0 sBaLe BaLe empty 17 7 0 10 -257985 -1 -1 0
1;
#X obj 359 1137 r smute1;
#X obj 809 1133 r smute5;
#X obj 128 1280 r srec1;
#X obj 560 1289 r srec5;
#X obj 397 1621 r srec2;
#X obj 954 1630 r srec6;
#X obj 274 1565 r srec3;
#X obj 821 1565 r srec7;
#X obj 506 1777 r srec4;
#X obj 1079 1777 r srec8;
#X obj 140 1696 r smute2;
#X obj 702 1713 r smute6;
#X obj 339 1897 r smute3;
#X obj 889 1884 r smute7;
#X obj 562 1609 r smute4;
#X obj 1099 1625 r smute8;
#X obj 165 201 abcknob 0 30 0 1 0 0 Sknob13 knob13 empty 0 -9 0 10
-257985 -258113 -4034 0 0;
#X obj 272 201 abcknob 0 30 0 1 0 0 Sknob23 knob23 empty 0 -9 0 10
-257985 -258113 -1 0 0;
#X obj 378 201 abcknob 0 30 0 1 0 0 Sknob33 knob33 empty 0 -9 0 10
-257985 -258113 -1 0 0;
#X obj 486 201 abcknob 0 30 0 1 0 0 Sknob43 knob43 empty 0 -9 0 10
-257985 -258113 -1 0 0;
#X obj 165 339 abcknob 0 30 0 1 0 0 Sknob12 knob12 empty 0 -9 0 10
-257985 -258113 -1 0 0;
#X obj 272 339 abcknob 0 30 0 1 0 0 Sknob22 knob22 empty 0 -9 0 10
-257985 -258113 -1 0 0;
#X obj 379 339 abcknob 0 30 0 1 0 0 Sknob32 knob32 empty 0 -9 0 10
-257985 -258113 -1 0 0;
#X obj 486 339 abcknob 0 30 0 1 0 0 Sknob42 knob42 empty 0 -9 0 10
-257985 -258113 -1 0 0;
#X obj 165 472 abcknob 0 30 0 1 0 0 Sknob11 knob11 empty 0 -9 0 10
-257985 -258113 -1 0 0;
#X obj 272 472 abcknob 0 30 0 1 0 0 Sknob21 knob21 empty 0 -9 0 10
-257985 -258113 -1 0 0;
#X obj 378 472 abcknob 0 30 0 1 0 0 Sknob31 knob31 empty 0 -9 0 10
-257985 -258113 -1 0 0;
#X obj 485 472 abcknob 0 30 0 1 0 0 Sknob41 knob41 empty 0 -9 0 10
-257985 -258113 -1 0 0;
#X obj 587 201 abcknob 0 30 0 1 0 0 Sknob53 knob53 empty 0 -9 0 10
-257985 -4034 -1 6400 0;
#X obj 694 201 abcknob 0 30 0 1 0 0 Sknob63 knob63 empty 0 -9 0 10
-257985 -4034 -1 2500 0;
#X obj 801 201 abcknob 0 30 0 1 0 0 Sknob73 knob73 empty 0 -9 0 10
-257985 -4034 -1 2300 0;
#X obj 907 201 abcknob 0 30 0 1 0 0 Sknob83 knob83 empty 0 -9 0 10
-257985 -4034 -1 6400 0;
#X obj 587 339 abcknob 0 30 0 1 0 0 Sknob52 knob52 empty 0 -9 0 10
-257985 -4034 -1 6600 0;
#X obj 694 339 abcknob 0 30 0 1 0 0 Sknob62 knob62 empty 0 -9 0 10
-257985 -4034 -1 8400 0;
#X obj 801 339 abcknob 0 30 0 1 0 0 Sknob72 knob72 empty 0 -9 0 10
-257985 -4034 -1 6400 0;
#X obj 907 339 abcknob 0 30 0 1 0 0 Sknob82 knob82 empty 0 -9 0 10
-257985 -4034 -1 10300 0;
#X obj 587 472 abcknob 0 30 0 1 0 0 Sknob51 knob51 empty 0 -9 0 10
-257985 -4034 -1 12700 0;
#X obj 694 472 abcknob 0 30 0 1 0 0 Sknob61 knob61 empty 0 -9 0 10
-257985 -4034 -1 6200 0;
#X obj 801 472 abcknob 0 30 0 1 0 0 Sknob71 knob71 empty 0 -9 0 10
-257985 -4034 -1 6200 0;
#X obj 908 472 abcknob 0 30 0 1 0 0 Sknob81 knob81 empty 0 -9 0 10
-257985 -4034 -1 12700 0;
#X connect 1 0 2 0;
#X connect 2 0 13 0;
#X connect 3 0 5 0;
#X connect 3 0 304 0;
#X connect 8 0 33 0;
#X connect 9 0 10 0;
#X connect 10 0 11 0;
#X connect 10 0 334 0;
#X connect 11 0 61 0;
#X connect 11 0 164 0;
#X connect 12 0 14 0;
#X connect 12 0 20 0;
#X connect 14 0 10 1;
#X connect 14 0 62 0;
#X connect 15 0 16 0;
#X connect 16 0 11 0;
#X connect 16 0 24 0;
#X connect 16 0 29 0;
#X connect 16 0 98 0;
#X connect 16 0 300 0;
#X connect 17 0 9 0;
#X connect 18 0 17 0;
#X connect 18 1 17 1;
#X connect 19 0 17 0;
#X connect 20 0 19 0;
#X connect 21 0 20 1;
#X connect 22 0 21 0;
#X connect 23 0 21 0;
#X connect 24 0 25 0;
#X connect 25 0 26 0;
#X connect 26 0 16 1;
#X connect 29 0 30 0;
#X connect 30 0 4 0;
#X connect 31 0 9 1;
#X connect 31 0 332 0;
#X connect 33 0 340 0;
#X connect 34 0 58 0;
#X connect 34 0 321 0;
#X connect 35 0 57 0;
#X connect 36 0 37 0;
#X connect 37 0 38 0;
#X connect 37 0 341 0;
#X connect 38 0 65 0;
#X connect 39 0 37 1;
#X connect 39 0 131 0;
#X connect 40 0 41 0;
#X connect 41 0 38 0;
#X connect 41 0 49 0;
#X connect 41 0 53 0;
#X connect 41 0 113 0;
#X connect 41 0 317 0;
#X connect 42 0 36 0;
#X connect 43 0 42 0;
#X connect 43 1 42 1;
#X connect 44 0 42 0;
#X connect 45 0 44 0;
#X connect 46 0 45 1;
#X connect 47 0 46 0;
#X connect 48 0 46 0;
#X connect 49 0 50 0;
#X connect 50 0 51 0;
#X connect 51 0 41 1;
#X connect 53 0 54 0;
#X connect 54 0 59 0;
#X connect 55 0 36 1;
#X connect 55 0 333 0;
#X connect 57 0 346 0;
#X connect 60 0 18 0;
#X connect 61 0 8 0;
#X connect 62 0 63 0;
#X connect 64 0 9 1;
#X connect 64 0 332 0;
#X connect 65 0 35 0;
#X connect 66 0 43 0;
#X connect 67 0 36 1;
#X connect 67 0 333 0;
#X connect 68 0 104 0;
#X connect 69 0 64 0;
#X connect 70 0 61 0;
#X connect 71 0 30 1;
#X connect 73 0 29 1;
#X connect 74 0 71 0;
#X connect 74 0 73 0;
#X connect 77 0 54 1;
#X connect 78 0 53 1;
#X connect 79 0 77 0;
#X connect 79 0 78 0;
#X connect 81 0 74 0;
#X connect 81 0 233 1;
#X connect 81 0 232 1;
#X connect 82 0 74 0;
#X connect 82 0 233 1;
#X connect 82 0 232 1;
#X connect 83 0 29 0;
#X connect 84 0 101 0;
#X connect 85 0 86 0;
#X connect 85 0 102 0;
#X connect 88 0 25 1;
#X connect 89 0 24 1;
#X connect 90 0 88 0;
#X connect 90 0 89 0;
#X connect 93 0 50 1;
#X connect 94 0 49 1;
#X connect 95 0 93 0;
#X connect 95 0 94 0;
#X connect 98 0 68 0;
#X connect 99 0 103 0;
#X connect 100 0 103 1;
#X connect 100 0 69 1;
#X connect 101 0 99 0;
#X connect 101 0 100 0;
#X connect 102 0 101 0;
#X connect 102 1 100 1;
#X connect 102 1 99 1;
#X connect 103 0 228 0;
#X connect 104 0 105 0;
#X connect 105 0 69 0;
#X connect 106 0 121 0;
#X connect 107 0 67 0;
#X connect 108 0 116 0;
#X connect 109 0 110 0;
#X connect 109 0 117 0;
#X connect 112 0 113 1;
#X connect 113 0 106 0;
#X connect 114 0 118 0;
#X connect 114 0 119 0;
#X connect 115 0 118 1;
#X connect 115 0 120 0;
#X connect 115 0 107 1;
#X connect 116 0 114 0;
#X connect 116 0 115 0;
#X connect 117 0 116 0;
#X connect 117 1 115 1;
#X connect 117 1 114 1;
#X connect 118 0 229 0;
#X connect 121 0 122 0;
#X connect 122 0 107 0;
#X connect 123 0 98 1;
#X connect 124 0 60 0;
#X connect 125 0 66 0;
#X connect 126 0 127 0;
#X connect 127 0 128 0;
#X connect 130 0 39 0;
#X connect 130 0 45 0;
#X connect 131 0 132 0;
#X connect 133 0 65 0;
#X connect 134 0 137 0;
#X connect 135 0 146 0;
#X connect 136 0 146 0;
#X connect 137 0 140 0;
#X connect 138 0 140 1;
#X connect 139 0 138 0;
#X connect 140 0 144 0;
#X connect 140 0 187 0;
#X connect 141 0 147 0;
#X connect 142 0 147 0;
#X connect 143 0 144 1;
#X connect 144 0 146 0;
#X connect 145 0 163 0;
#X connect 148 0 143 1;
#X connect 149 0 138 1;
#X connect 150 0 137 1;
#X connect 151 0 143 0;
#X connect 152 0 153 0;
#X connect 153 0 156 0;
#X connect 154 0 156 1;
#X connect 155 0 154 0;
#X connect 156 0 162 0;
#X connect 156 0 188 0;
#X connect 157 0 162 1;
#X connect 158 0 157 1;
#X connect 159 0 154 1;
#X connect 160 0 153 1;
#X connect 161 0 157 0;
#X connect 162 0 147 0;
#X connect 163 0 150 0;
#X connect 163 0 149 0;
#X connect 163 0 148 0;
#X connect 163 0 160 0;
#X connect 163 0 159 0;
#X connect 163 0 158 0;
#X connect 163 0 196 0;
#X connect 165 0 90 0;
#X connect 165 0 230 1;
#X connect 165 0 231 1;
#X connect 166 0 90 0;
#X connect 166 0 230 1;
#X connect 166 0 231 1;
#X connect 170 0 171 0;
#X connect 171 0 66 0;
#X connect 171 0 60 0;
#X connect 172 0 171 0;
#X connect 173 0 174 1;
#X connect 174 0 246 0;
#X connect 175 0 176 0;
#X connect 175 0 177 1;
#X connect 176 0 173 0;
#X connect 177 0 247 0;
#X connect 178 0 179 1;
#X connect 179 0 248 0;
#X connect 180 0 181 0;
#X connect 180 0 182 1;
#X connect 181 0 178 0;
#X connect 182 0 249 0;
#X connect 183 0 174 0;
#X connect 183 0 177 0;
#X connect 184 0 183 1;
#X connect 185 0 179 0;
#X connect 185 0 182 0;
#X connect 186 0 185 1;
#X connect 187 0 250 0;
#X connect 188 0 251 0;
#X connect 189 0 187 1;
#X connect 190 0 163 0;
#X connect 191 0 192 0;
#X connect 192 0 186 0;
#X connect 192 0 184 0;
#X connect 193 0 192 0;
#X connect 195 0 198 1;
#X connect 195 0 290 0;
#X connect 196 0 195 1;
#X connect 196 0 197 1;
#X connect 197 0 198 0;
#X connect 197 0 289 0;
#X connect 199 0 189 0;
#X connect 200 0 188 1;
#X connect 201 0 200 0;
#X connect 202 0 269 0;
#X connect 203 0 136 0;
#X connect 204 0 270 0;
#X connect 205 0 142 0;
#X connect 208 0 31 0;
#X connect 209 0 55 0;
#X connect 210 0 272 0;
#X connect 210 0 279 0;
#X connect 211 0 271 0;
#X connect 211 0 280 0;
#X connect 211 0 287 0;
#X connect 211 0 285 0;
#X connect 212 0 124 0;
#X connect 213 0 125 0;
#X connect 214 0 31 0;
#X connect 215 0 55 0;
#X connect 216 0 166 0;
#X connect 217 0 165 0;
#X connect 218 0 82 0;
#X connect 219 0 81 0;
#X connect 220 0 95 0;
#X connect 220 0 239 1;
#X connect 220 0 238 1;
#X connect 221 0 95 0;
#X connect 221 0 238 1;
#X connect 221 0 239 1;
#X connect 222 0 221 0;
#X connect 223 0 220 0;
#X connect 224 0 79 0;
#X connect 224 0 241 1;
#X connect 224 0 240 1;
#X connect 225 0 79 0;
#X connect 225 0 240 1;
#X connect 225 0 241 1;
#X connect 226 0 225 0;
#X connect 227 0 224 0;
#X connect 228 0 104 1;
#X connect 229 0 121 1;
#X connect 230 0 89 0;
#X connect 231 0 88 0;
#X connect 232 0 73 0;
#X connect 233 0 71 0;
#X connect 234 0 60 0;
#X connect 235 0 234 0;
#X connect 236 0 66 0;
#X connect 237 0 236 0;
#X connect 238 0 94 0;
#X connect 239 0 93 0;
#X connect 240 0 78 0;
#X connect 241 0 77 0;
#X connect 242 0 243 0;
#X connect 243 0 3 0;
#X connect 244 0 245 0;
#X connect 245 0 34 0;
#X connect 252 0 258 0;
#X connect 253 0 258 1;
#X connect 254 0 260 0;
#X connect 255 0 260 1;
#X connect 256 0 259 1;
#X connect 257 0 261 1;
#X connect 258 0 259 0;
#X connect 259 0 197 0;
#X connect 260 0 261 0;
#X connect 261 0 195 0;
#X connect 262 0 283 0;
#X connect 263 0 284 0;
#X connect 264 0 265 0;
#X connect 264 0 266 0;
#X connect 264 0 210 0;
#X connect 264 0 211 0;
#X connect 264 0 268 0;
#X connect 264 0 291 0;
#X connect 265 0 6 0;
#X connect 266 0 7 0;
#X connect 268 0 171 0;
#X connect 269 0 206 0;
#X connect 269 1 135 0;
#X connect 270 0 207 0;
#X connect 270 1 141 0;
#X connect 271 0 126 0;
#X connect 272 0 1 0;
#X connect 273 0 274 0;
#X connect 274 0 275 0;
#X connect 276 0 277 0;
#X connect 277 0 278 0;
#X connect 279 0 273 0;
#X connect 280 0 276 0;
#X connect 283 0 267 0;
#X connect 284 0 267 0;
#X connect 285 0 289 0;
#X connect 286 0 289 0;
#X connect 287 0 290 0;
#X connect 288 0 290 0;
#X connect 291 0 288 0;
#X connect 291 0 286 0;
#X connect 292 0 325 0;
#X connect 293 0 295 1;
#X connect 294 0 295 0;
#X connect 295 0 296 0;
#X connect 296 0 292 0;
#X connect 297 0 294 1;
#X connect 298 0 299 0;
#X connect 298 0 302 0;
#X connect 298 0 324 0;
#X connect 299 0 297 0;
#X connect 299 0 293 0;
#X connect 300 0 294 0;
#X connect 301 0 300 1;
#X connect 302 0 303 0;
#X connect 303 0 301 0;
#X connect 304 0 305 0;
#X connect 305 0 301 0;
#X connect 306 0 298 0;
#X connect 307 0 314 0;
#X connect 308 0 328 0;
#X connect 309 0 311 1;
#X connect 310 0 311 0;
#X connect 311 0 312 0;
#X connect 312 0 308 0;
#X connect 312 0 315 0;
#X connect 313 0 310 1;
#X connect 314 0 316 0;
#X connect 314 0 319 0;
#X connect 316 0 313 0;
#X connect 316 0 309 0;
#X connect 317 0 310 0;
#X connect 318 0 317 1;
#X connect 319 0 320 0;
#X connect 320 0 318 0;
#X connect 321 0 322 0;
#X connect 322 0 318 0;
#X connect 323 0 294 0;
#X connect 325 0 326 0;
#X connect 326 0 327 0;
#X connect 326 0 5 0;
#X connect 328 0 329 0;
#X connect 329 0 330 0;
#X connect 329 0 58 0;
#X connect 331 0 310 0;
#X connect 332 0 334 1;
#X connect 333 0 341 1;
#X connect 334 0 339 0;
#X connect 335 0 167 0;
#X connect 335 0 183 0;
#X connect 336 0 337 0;
#X connect 336 0 339 1;
#X connect 337 0 338 0;
#X connect 338 0 340 1;
#X connect 339 0 335 0;
#X connect 340 0 335 1;
#X connect 341 0 345 0;
#X connect 342 0 343 0;
#X connect 342 0 345 1;
#X connect 343 0 344 0;
#X connect 344 0 346 1;
#X connect 345 0 347 1;
#X connect 346 0 347 0;
#X connect 347 0 185 0;
#X connect 347 0 168 0;
#X connect 349 0 150 0;
#X connect 350 0 149 0;
#X connect 351 0 148 0;
#X connect 352 0 160 0;
#X connect 353 0 159 0;
#X connect 354 0 158 0;
#X connect 355 0 196 0;
#X connect 356 0 184 0;
#X connect 357 0 186 0;
#X connect 358 0 64 0;
#X connect 359 0 84 0;
#X connect 360 0 85 0;
#X connect 361 0 235 0;
#X connect 362 0 231 0;
#X connect 363 0 230 0;
#X connect 364 0 233 0;
#X connect 365 0 232 0;
#X connect 366 0 242 0;
#X connect 367 0 306 0;
#X connect 368 0 237 0;
#X connect 369 0 108 0;
#X connect 370 0 109 0;
#X connect 371 0 67 0;
#X connect 372 0 239 0;
#X connect 373 0 238 0;
#X connect 374 0 241 0;
#X connect 375 0 240 0;
#X connect 376 0 307 0;
#X connect 377 0 244 0;
#X connect 408 0 199 0;
#X connect 409 0 201 0;
#X connect 410 0 202 0;
#X connect 410 0 203 0;
#X connect 411 0 204 0;
#X connect 411 0 205 0;
#X connect 412 0 15 0;
#X connect 413 0 40 0;
#X connect 414 0 212 0;
#X connect 415 0 213 0;
#X connect 416 0 218 0;
#X connect 416 0 219 0;
#X connect 417 0 226 0;
#X connect 417 0 227 0;
#X connect 418 0 123 0;
#X connect 419 0 112 0;
#X connect 420 0 214 0;
#X connect 421 0 215 0;
#X connect 422 0 216 0;
#X connect 422 0 217 0;
#X connect 423 0 222 0;
#X connect 423 0 223 0;
#X coords 0 -1 1 1 1003 842 1 100 100;
#X restore 1 -4 pd amot_patch;
