#N canvas 689 206 678 659 10;
#X obj 28 377 line~;
#X msg 29 336 \$1 \, \$2 \$3;
#X obj 30 304 pack f f f;
#X floatatom 31 84 10 0 0 0 - - -;
#X floatatom 85 134 10 0 0 0 - - -;
#X obj 60 279 +;
#X obj 119 258 * 44.1;
#X text 96 82 start sample;
#X text 156 132 delta grain ms;
#X obj 140 189 hsl 128 15 0.5 1 0 0 empty empty empty -2 -8 0 10 -262144
-1 -1 12700 1;
#X obj 137 210 * 44.1;
#X text 133 171 speed;
#X obj 137 234 t b f;
#X obj 257 112 loadbang;
#X obj 257 134 t b b;
#X obj 287 155 samplerate~;
#X obj 288 177 / 1000;
#X obj 30 15 inlet;
#X obj 27 486 outlet~;
#X msg 257 155 1;
#X obj 30 245 t f f;
#X obj 29 43 t f b, f 84;
#X obj 532 85 t b b;
#X msg 532 128 0;
#X msg 582 126 1;
#X obj 27 462 *~, f 85;
#X obj 534 241 line~;
#X obj 99 103 r grainDur_ch2;
#X obj 155 151 r grainSpeed_ch2;
#X obj 27 430 tabread4~ grainArray2;
#X obj 576 74 - 20;
#X obj 532 105 del 20;
#X obj 532 160 pack f 20;
#X connect 0 0 29 0;
#X connect 1 0 0 0;
#X connect 2 0 1 0;
#X connect 3 0 20 0;
#X connect 4 0 6 0;
#X connect 4 0 2 2;
#X connect 5 0 2 1;
#X connect 6 0 5 1;
#X connect 9 0 10 0;
#X connect 10 0 12 0;
#X connect 12 0 6 0;
#X connect 12 1 6 1;
#X connect 13 0 14 0;
#X connect 14 0 19 0;
#X connect 14 1 15 0;
#X connect 15 0 16 0;
#X connect 16 0 10 1;
#X connect 17 0 21 0;
#X connect 19 0 9 0;
#X connect 20 0 2 0;
#X connect 20 1 5 0;
#X connect 21 0 3 0;
#X connect 21 1 22 0;
#X connect 22 0 31 0;
#X connect 22 1 24 0;
#X connect 23 0 32 0;
#X connect 24 0 32 0;
#X connect 25 0 18 0;
#X connect 26 0 25 1;
#X connect 27 0 4 0;
#X connect 27 0 30 0;
#X connect 28 0 9 0;
#X connect 29 0 25 0;
#X connect 30 0 31 1;
#X connect 31 0 23 0;
#X connect 32 0 26 0;
