#N canvas 42 23 1638 1005 10;
#X obj 25 30 ctlin;
#X floatatom 64 83 5 0 0 0 - - -;
#X floatatom 26 83 5 0 0 0 - - -;
#X obj 26 108 pack 0 0;
#X obj 26 56 t b f;
#X obj 37 243 / 127;
#X obj 108 243 / 127;
#X obj 180 243 / 127;
#X obj 250 243 / 127;
#X obj 742 45 notein;
#X floatatom 742 68 5 0 0 0 - - -;
#X floatatom 787 67 5 0 0 0 - - -;
#X obj 742 89 pack 0 0;
#X obj 744 196 sel 127;
#X obj 744 230 tgl 15 0 empty empty empty 17 7 0 10 -262144 -1 -1 1
1;
#X obj 761 265 t b f;
#X msg 761 289 1;
#X text 1591 857 end of the patch;
#X obj 1343 118 loadbang;
#X obj 37 210 route 16 20 24 28, f 48;
#X obj 352 243 / 127;
#X obj 423 243 / 127;
#X obj 495 243 / 127;
#X obj 565 243 / 127;
#X obj 41 384 / 127;
#X obj 112 384 / 127;
#X obj 184 384 / 127;
#X obj 254 384 / 127;
#X obj 356 384 / 127;
#X obj 427 384 / 127;
#X obj 499 384 / 127;
#X obj 569 384 / 127;
#X floatatom 51 264 5 0 0 0 - - -;
#X floatatom 122 264 5 0 0 0 - - -;
#X floatatom 194 264 5 0 0 0 - - -;
#X floatatom 264 264 5 0 0 0 - - -;
#X floatatom 366 264 5 0 0 0 - - -;
#X floatatom 437 264 5 0 0 0 - - -;
#X floatatom 509 264 5 0 0 0 - - -;
#X floatatom 579 264 5 0 0 0 - - -;
#X obj 42 513 / 127;
#X obj 113 513 / 127;
#X obj 185 513 / 127;
#X obj 255 513 / 127;
#X obj 357 513 / 127;
#X obj 428 513 / 127;
#X obj 500 513 / 127;
#X obj 570 513 / 127;
#X obj 24 131 s knob;
#X obj 36 178 r knob;
#X obj 36 316 r knob;
#X obj 42 450 r knob;
#X obj 358 449 r knob;
#X obj 353 323 r knob;
#X obj 350 184 r knob;
#X obj 352 210 route 46 50 54 58, f 48;
#X obj 41 351 route 17 21 25 29, f 48;
#X floatatom 57 403 5 0 0 0 - - -;
#X floatatom 128 403 5 0 0 0 - - -;
#X floatatom 200 403 5 0 0 0 - - -;
#X floatatom 270 403 5 0 0 0 - - -;
#X floatatom 372 403 5 0 0 0 - - -;
#X floatatom 443 403 5 0 0 0 - - -;
#X floatatom 515 403 5 0 0 0 - - -;
#X floatatom 585 403 5 0 0 0 - - -;
#X floatatom 58 533 5 0 0 0 - - -;
#X floatatom 129 533 5 0 0 0 - - -;
#X floatatom 201 533 5 0 0 0 - - -;
#X floatatom 271 533 5 0 0 0 - - -;
#X floatatom 373 533 5 0 0 0 - - -;
#X floatatom 444 533 5 0 0 0 - - -;
#X floatatom 516 533 5 0 0 0 - - -;
#X floatatom 586 533 5 0 0 0 - - -;
#X obj 356 351 route 47 51 55 59, f 48;
#X obj 42 480 route 18 22 26 30, f 48;
#X obj 357 480 route 48 52 56 60, f 48;
#X obj 744 172 route 1 4 7 10, f 42;
#X obj 803 195 sel 127;
#X obj 803 240 tgl 15 0 empty empty empty 17 7 0 10 -262144 -1 -1 1
1;
#X obj 820 264 t b f;
#X obj 867 195 sel 127;
#X obj 867 240 tgl 15 0 empty empty empty 17 7 0 10 -262144 -1 -1 0
1;
#X obj 884 264 t b f;
#X obj 925 195 sel 127;
#X obj 925 240 tgl 15 0 empty empty empty 17 7 0 10 -262144 -1 -1 0
1;
#X obj 942 264 t b f;
#X msg 820 288 4;
#X msg 884 288 7;
#X msg 942 288 10;
#X obj 1361 150 bng 15 250 50 0 empty empty empty 17 7 0 10 -262144
-1 -1;
#X msg 1347 224 0;
#X obj 1023 196 sel 127;
#X obj 1023 230 tgl 15 0 empty empty empty 17 7 0 10 -262144 -1 -1
1 1;
#X obj 1040 265 t b f;
#X obj 1082 195 sel 127;
#X obj 1082 240 tgl 15 0 empty empty empty 17 7 0 10 -262144 -1 -1
1 1;
#X obj 1099 264 t b f;
#X obj 1146 195 sel 127;
#X obj 1146 240 tgl 15 0 empty empty empty 17 7 0 10 -262144 -1 -1
0 1;
#X obj 1163 264 t b f;
#X obj 1204 195 sel 127;
#X obj 1204 240 tgl 15 0 empty empty empty 17 7 0 10 -262144 -1 -1
0 1;
#X obj 1221 264 t b f;
#X obj 1277 303 s noteout1;
#X obj 1277 278 s noteout2;
#X obj 1023 172 route 13 16 19 22, f 42;
#X msg 1040 289 13;
#X msg 1099 288 16;
#X msg 1163 288 19;
#X msg 1221 288 22;
#X obj 1244 853 noteout, f 26;
#X obj 1245 823 r noteout1;
#X obj 1319 823 r noteout2;
#X obj 742 393 sel 127;
#X obj 742 446 tgl 15 0 empty empty empty 17 7 0 10 -262144 -1 -1 0
1;
#X obj 761 471 t b f;
#X obj 801 392 sel 127;
#X obj 801 445 tgl 15 0 empty empty empty 17 7 0 10 -262144 -1 -1 0
1;
#X obj 820 470 t b f;
#X obj 865 392 sel 127;
#X obj 865 445 tgl 15 0 empty empty empty 17 7 0 10 -262144 -1 -1 0
1;
#X obj 884 470 t b f;
#X obj 923 392 sel 127;
#X obj 923 445 tgl 15 0 empty empty empty 17 7 0 10 -262144 -1 -1 1
1;
#X obj 942 470 t b f;
#X obj 1366 338 bng 15 250 50 0 empty empty empty 17 7 0 10 -262144
-1 -1;
#X msg 1351 429 0;
#X obj 1021 393 sel 127;
#X obj 1021 446 tgl 15 0 empty empty empty 17 7 0 10 -262144 -1 -1
0 1;
#X obj 1040 471 t b f;
#X obj 1080 392 sel 127;
#X obj 1080 445 tgl 15 0 empty empty empty 17 7 0 10 -262144 -1 -1
0 1;
#X obj 1099 470 t b f;
#X obj 1144 392 sel 127;
#X obj 1144 445 tgl 15 0 empty empty empty 17 7 0 10 -262144 -1 -1
0 1;
#X obj 1163 470 t b f;
#X obj 1202 392 sel 127;
#X obj 1202 445 tgl 15 0 empty empty empty 17 7 0 10 -262144 -1 -1
1 1;
#X obj 1221 470 t b f;
#X obj 1275 508 s noteout1;
#X obj 1275 483 s noteout2;
#X obj 742 369 route 3 6 9 12, f 42;
#X msg 761 495 3;
#X msg 820 494 6;
#X msg 884 494 9;
#X msg 942 494 12;
#X obj 1021 369 route 15 18 21 24, f 42;
#X msg 1040 495 15;
#X msg 1099 494 18;
#X msg 1163 494 21;
#X msg 1221 494 24;
#X obj 1426 200 sel 127;
#X obj 1426 238 tgl 15 0 empty empty empty 17 7 0 10 -262144 -1 -1
0 1;
#X obj 1437 262 t b f;
#X obj 1492 199 sel 127;
#X obj 1492 239 tgl 15 0 empty empty empty 17 7 0 10 -262144 -1 -1
0 1;
#X obj 1503 261 t b f;
#X obj 1562 199 sel 127;
#X obj 1562 239 tgl 15 0 empty empty empty 17 7 0 10 -262144 -1 -1
1 1;
#X obj 1573 261 t b f;
#X obj 1426 176 route 25 26 27, f 34;
#X msg 1437 286 25;
#X msg 1503 285 26;
#X msg 1573 285 27;
#X obj 39 705 / 127;
#X obj 110 705 / 127;
#X obj 182 705 / 127;
#X obj 252 705 / 127;
#X obj 354 705 / 127;
#X obj 425 705 / 127;
#X obj 497 705 / 127;
#X obj 567 705 / 127;
#X floatatom 48 731 5 0 0 0 - - -;
#X floatatom 119 731 5 0 0 0 - - -;
#X floatatom 192 729 5 0 0 0 - - -;
#X floatatom 261 730 5 0 0 0 - - -;
#X floatatom 366 729 5 0 0 0 - - -;
#X floatatom 437 729 5 0 0 0 - - -;
#X floatatom 509 729 5 0 0 0 - - -;
#X floatatom 579 729 5 0 0 0 - - -;
#X obj 38 640 r knob;
#X obj 352 646 r knob;
#X obj 39 672 route 19 23 27 31, f 48;
#X obj 354 672 route 49 53 57 61, f 48;
#X obj 677 706 / 127;
#X floatatom 688 731 5 0 0 0 - - -;
#X obj 675 647 r knob;
#X obj 677 673 route 62;
#X obj 38 755 s fader1;
#X obj 110 754 s fader2;
#X obj 183 755 s fader3;
#X obj 251 754 s fader4;
#X obj 350 753 s fader5;
#X obj 422 752 s fader6;
#X obj 495 753 s fader7;
#X obj 567 752 s fader8;
#X obj 676 754 s faderM;
#X obj 43 558 s knob11;
#X obj 115 557 s knob21;
#X obj 188 558 s knob31;
#X obj 256 557 s knob41;
#X obj 115 426 s knob22;
#X obj 43 427 s knob12;
#X obj 188 427 s knob32;
#X obj 256 426 s knob42;
#X obj 37 285 s knob13;
#X obj 182 285 s knob33;
#X obj 109 284 s knob23;
#X obj 250 284 s knob43;
#X obj 355 556 s knob51;
#X obj 427 555 s knob61;
#X obj 500 556 s knob71;
#X obj 572 555 s knob81;
#X obj 355 425 s knob52;
#X obj 427 424 s knob62;
#X obj 500 425 s knob72;
#X obj 572 424 s knob82;
#X obj 349 283 s knob53;
#X obj 421 282 s knob63;
#X obj 494 283 s knob73;
#X obj 566 282 s knob83;
#X obj 742 317 s mute1;
#X obj 803 316 s mute2;
#X obj 867 318 s mute3;
#X obj 927 317 s mute4;
#X obj 1024 315 s mute5;
#X obj 1085 314 s mute6;
#X obj 1149 316 s mute7;
#X obj 1209 315 s mute8;
#X obj 739 520 s rec1;
#X obj 800 519 s rec2;
#X obj 864 521 s rec3;
#X obj 924 520 s rec4;
#X obj 1021 518 s rec5;
#X obj 1082 517 s rec6;
#X obj 1146 519 s rec7;
#X obj 1206 518 s rec8;
#X obj 1426 311 s BaLe;
#X obj 1497 313 s BaRi;
#X obj 1563 312 s solo;
#X obj 743 112 s buttons;
#X obj 744 147 r buttons;
#X obj 1023 140 r buttons;
#X obj 742 344 r buttons;
#X obj 1021 337 r buttons;
#X obj 1426 151 r buttons;
#X obj 1429 360 sel 127;
#X obj 1429 383 tgl 15 0 empty empty empty 17 7 0 10 -262144 -1 -1
0 1;
#X obj 1440 409 t b f;
#X msg 1440 433 25;
#X obj 1429 458 s BaLe;
#X text 1429 482 for switch;
#X text 1526 502 for bang;
#X obj 1524 361 sel 127;
#X obj 1524 407 tgl 15 0 empty empty empty 17 7 0 10 -262144 -1 -1
0 1;
#X obj 1536 431 t b f;
#X msg 1536 455 25;
#X obj 1525 480 s BaLe;
#X obj 1533 391 del 400;
#X obj 1435 217 del 400;
#X obj 1504 217 del 400;
#X obj 873 418 del 400;
#X obj 1152 416 del 400;
#X obj 1154 217 del 400;
#X obj 878 217 del 400;
#X obj 677 109 loadbang;
#X obj 695 141 bng 15 250 50 0 empty empty empty 17 7 0 10 -262144
-1 -1;
#X msg 681 215 1;
#X obj 740 569 sel 1;
#X msg 741 594 1;
#X obj 1026 564 sel 1;
#X msg 1027 589 1;
#X connect 0 0 4 0;
#X connect 0 1 2 0;
#X connect 1 0 3 1;
#X connect 2 0 3 0;
#X connect 3 0 48 0;
#X connect 4 0 2 0;
#X connect 4 1 1 0;
#X connect 5 0 32 0;
#X connect 5 0 205 0;
#X connect 6 0 33 0;
#X connect 6 0 207 0;
#X connect 7 0 34 0;
#X connect 7 0 206 0;
#X connect 8 0 35 0;
#X connect 8 0 208 0;
#X connect 9 0 10 0;
#X connect 9 1 11 0;
#X connect 10 0 12 0;
#X connect 11 0 12 1;
#X connect 12 0 240 0;
#X connect 13 0 14 0;
#X connect 14 0 15 0;
#X connect 14 0 221 0;
#X connect 15 0 16 0;
#X connect 15 1 104 0;
#X connect 16 0 103 0;
#X connect 18 0 90 0;
#X connect 18 0 126 0;
#X connect 19 0 5 0;
#X connect 19 1 6 0;
#X connect 19 2 7 0;
#X connect 19 3 8 0;
#X connect 20 0 36 0;
#X connect 20 0 217 0;
#X connect 21 0 37 0;
#X connect 21 0 218 0;
#X connect 22 0 38 0;
#X connect 22 0 219 0;
#X connect 23 0 39 0;
#X connect 23 0 220 0;
#X connect 24 0 57 0;
#X connect 24 0 202 0;
#X connect 25 0 58 0;
#X connect 25 0 201 0;
#X connect 26 0 59 0;
#X connect 26 0 203 0;
#X connect 27 0 60 0;
#X connect 27 0 204 0;
#X connect 28 0 61 0;
#X connect 28 0 213 0;
#X connect 29 0 62 0;
#X connect 29 0 214 0;
#X connect 30 0 63 0;
#X connect 30 0 215 0;
#X connect 31 0 64 0;
#X connect 31 0 216 0;
#X connect 40 0 65 0;
#X connect 40 0 197 0;
#X connect 41 0 66 0;
#X connect 41 0 198 0;
#X connect 42 0 67 0;
#X connect 42 0 199 0;
#X connect 43 0 68 0;
#X connect 43 0 200 0;
#X connect 44 0 69 0;
#X connect 44 0 209 0;
#X connect 45 0 70 0;
#X connect 45 0 210 0;
#X connect 46 0 71 0;
#X connect 46 0 211 0;
#X connect 47 0 72 0;
#X connect 47 0 212 0;
#X connect 49 0 19 0;
#X connect 50 0 56 0;
#X connect 51 0 74 0;
#X connect 52 0 75 0;
#X connect 53 0 73 0;
#X connect 54 0 55 0;
#X connect 55 0 20 0;
#X connect 55 1 21 0;
#X connect 55 2 22 0;
#X connect 55 3 23 0;
#X connect 56 0 24 0;
#X connect 56 1 25 0;
#X connect 56 2 26 0;
#X connect 56 3 27 0;
#X connect 73 0 28 0;
#X connect 73 1 29 0;
#X connect 73 2 30 0;
#X connect 73 3 31 0;
#X connect 74 0 40 0;
#X connect 74 1 41 0;
#X connect 74 2 42 0;
#X connect 74 3 43 0;
#X connect 75 0 44 0;
#X connect 75 1 45 0;
#X connect 75 2 46 0;
#X connect 75 3 47 0;
#X connect 76 0 13 0;
#X connect 76 1 77 0;
#X connect 76 2 80 0;
#X connect 76 3 83 0;
#X connect 77 0 78 0;
#X connect 78 0 79 0;
#X connect 78 0 222 0;
#X connect 79 0 86 0;
#X connect 79 1 104 0;
#X connect 80 0 81 0;
#X connect 80 0 264 0;
#X connect 81 0 82 0;
#X connect 81 0 223 0;
#X connect 82 0 87 0;
#X connect 82 1 104 0;
#X connect 83 0 84 0;
#X connect 84 0 85 0;
#X connect 84 0 224 0;
#X connect 85 0 88 0;
#X connect 85 1 104 0;
#X connect 86 0 103 0;
#X connect 87 0 103 0;
#X connect 88 0 103 0;
#X connect 89 0 90 0;
#X connect 90 0 78 0;
#X connect 90 0 81 0;
#X connect 90 0 84 0;
#X connect 90 0 155 0;
#X connect 90 0 158 0;
#X connect 90 0 152 0;
#X connect 91 0 92 0;
#X connect 92 0 93 0;
#X connect 92 0 225 0;
#X connect 93 0 106 0;
#X connect 93 1 104 0;
#X connect 94 0 95 0;
#X connect 95 0 96 0;
#X connect 95 0 226 0;
#X connect 96 0 107 0;
#X connect 96 1 104 0;
#X connect 97 0 98 0;
#X connect 97 0 263 0;
#X connect 98 0 99 0;
#X connect 98 0 227 0;
#X connect 99 0 108 0;
#X connect 99 1 104 0;
#X connect 100 0 101 0;
#X connect 101 0 102 0;
#X connect 101 0 228 0;
#X connect 102 0 109 0;
#X connect 102 1 104 0;
#X connect 105 0 91 0;
#X connect 105 1 94 0;
#X connect 105 2 97 0;
#X connect 105 3 100 0;
#X connect 106 0 103 0;
#X connect 107 0 103 0;
#X connect 108 0 103 0;
#X connect 109 0 103 0;
#X connect 111 0 110 0;
#X connect 112 0 110 1;
#X connect 113 0 114 0;
#X connect 114 0 115 0;
#X connect 114 0 229 0;
#X connect 114 0 268 0;
#X connect 115 0 142 0;
#X connect 115 1 140 0;
#X connect 116 0 117 0;
#X connect 117 0 118 0;
#X connect 117 0 230 0;
#X connect 118 0 143 0;
#X connect 118 1 140 0;
#X connect 119 0 120 0;
#X connect 119 0 261 0;
#X connect 120 0 121 0;
#X connect 120 0 231 0;
#X connect 121 0 144 0;
#X connect 121 1 140 0;
#X connect 122 0 123 0;
#X connect 123 0 124 0;
#X connect 123 0 232 0;
#X connect 124 0 145 0;
#X connect 124 1 140 0;
#X connect 125 0 126 0;
#X connect 126 0 114 0;
#X connect 126 0 117 0;
#X connect 126 0 120 0;
#X connect 126 0 123 0;
#X connect 127 0 128 0;
#X connect 128 0 129 0;
#X connect 128 0 233 0;
#X connect 128 0 270 0;
#X connect 128 0 271 0;
#X connect 129 0 147 0;
#X connect 129 1 140 0;
#X connect 130 0 131 0;
#X connect 131 0 132 0;
#X connect 131 0 234 0;
#X connect 132 0 148 0;
#X connect 132 1 140 0;
#X connect 133 0 134 0;
#X connect 133 0 262 0;
#X connect 134 0 135 0;
#X connect 134 0 235 0;
#X connect 135 0 149 0;
#X connect 135 1 140 0;
#X connect 136 0 137 0;
#X connect 137 0 138 0;
#X connect 137 0 236 0;
#X connect 138 0 150 0;
#X connect 138 1 140 0;
#X connect 141 0 113 0;
#X connect 141 1 116 0;
#X connect 141 2 119 0;
#X connect 141 3 122 0;
#X connect 142 0 139 0;
#X connect 143 0 139 0;
#X connect 144 0 139 0;
#X connect 145 0 139 0;
#X connect 146 0 127 0;
#X connect 146 1 130 0;
#X connect 146 2 133 0;
#X connect 146 3 136 0;
#X connect 147 0 139 0;
#X connect 148 0 139 0;
#X connect 149 0 139 0;
#X connect 150 0 139 0;
#X connect 151 0 152 0;
#X connect 151 0 259 0;
#X connect 152 0 153 0;
#X connect 152 0 237 0;
#X connect 153 0 161 0;
#X connect 153 1 104 0;
#X connect 154 0 155 0;
#X connect 154 0 260 0;
#X connect 155 0 156 0;
#X connect 155 0 238 0;
#X connect 156 0 162 0;
#X connect 156 1 104 0;
#X connect 157 0 158 0;
#X connect 158 0 159 0;
#X connect 158 0 239 0;
#X connect 159 0 163 0;
#X connect 159 1 104 0;
#X connect 160 0 151 0;
#X connect 160 1 154 0;
#X connect 160 2 157 0;
#X connect 161 0 103 0;
#X connect 162 0 103 0;
#X connect 163 0 103 0;
#X connect 164 0 172 0;
#X connect 164 0 188 0;
#X connect 165 0 173 0;
#X connect 165 0 189 0;
#X connect 166 0 174 0;
#X connect 166 0 190 0;
#X connect 167 0 175 0;
#X connect 167 0 191 0;
#X connect 168 0 176 0;
#X connect 168 0 192 0;
#X connect 169 0 177 0;
#X connect 169 0 193 0;
#X connect 170 0 178 0;
#X connect 170 0 194 0;
#X connect 171 0 179 0;
#X connect 171 0 195 0;
#X connect 180 0 182 0;
#X connect 181 0 183 0;
#X connect 182 0 164 0;
#X connect 182 1 165 0;
#X connect 182 2 166 0;
#X connect 182 3 167 0;
#X connect 183 0 168 0;
#X connect 183 1 169 0;
#X connect 183 2 170 0;
#X connect 183 3 171 0;
#X connect 184 0 185 0;
#X connect 184 0 196 0;
#X connect 186 0 187 0;
#X connect 187 0 184 0;
#X connect 241 0 76 0;
#X connect 242 0 105 0;
#X connect 243 0 141 0;
#X connect 244 0 146 0;
#X connect 245 0 160 0;
#X connect 246 0 247 0;
#X connect 247 0 248 0;
#X connect 247 0 250 0;
#X connect 248 0 249 0;
#X connect 253 0 254 0;
#X connect 253 0 258 0;
#X connect 254 0 255 0;
#X connect 254 0 257 0;
#X connect 255 0 256 0;
#X connect 258 0 254 0;
#X connect 259 0 152 0;
#X connect 260 0 155 0;
#X connect 261 0 120 0;
#X connect 262 0 134 0;
#X connect 263 0 98 0;
#X connect 264 0 81 0;
#X connect 265 0 267 0;
#X connect 266 0 267 0;
#X connect 267 0 14 0;
#X connect 267 0 92 0;
#X connect 268 0 269 0;
#X connect 269 0 117 0;
#X connect 270 0 271 0;
#X connect 271 0 131 0;
