#N canvas 391 177 644 510 10;
#X obj 28 255 tabread4~ grainArray;
#X obj 168 59 inlet;
#X obj 28 311 outlet~;
#X obj 168 112 t b b;
#X msg 169 155 0;
#X msg 219 153 1;
#X obj 28 287 *~, f 24;
#X obj 168 225 line~;
#X obj 219 134 del 20;
#X obj 168 186 pack f 20;
#X obj 168 90 t b, f 40;
#X obj 27 231 inlet~;
#X connect 0 0 6 0;
#X connect 1 0 10 0;
#X connect 3 0 8 0;
#X connect 3 1 4 0;
#X connect 4 0 9 0;
#X connect 5 0 9 0;
#X connect 6 0 2 0;
#X connect 7 0 6 1;
#X connect 8 0 5 0;
#X connect 9 0 7 0;
#X connect 10 0 3 0;
#X connect 11 0 0 0;
