#N canvas 42 23 1238 755 10;
#X obj 1377 374 array define grainArray;
#X obj 1381 301 soundfiler;
#X floatatom 1381 321 14 0 0 0 - - -;
#X obj 390 1223 hsl 128 15 0.5 1 0 0 empty empty empty -2 -8 0 10 -191407
-1 -1 0 1;
#X obj 389 1115 s grainDur;
#X obj 387 1245 s grainSpeed;
#X msg 1471 141 \; pd dsp 1 \;;
#X msg 1471 190 \; pd dsp 0 \;;
#X msg 84 1337 next \$1;
#X obj 91 1122 phasor~;
#X obj 90 1159 *~;
#X obj 85 1262 snapshot~;
#X obj 188 613 r fileSamples;
#X obj 1381 340 s fileSamples;
#X floatatom 188 661 12 0 0 0 - - -;
#X obj 372 802 tgl 15 0 empty empty empty 17 7 0 10 -262144 -1 -1 0
1;
#X obj 372 830 metro 125;
#X obj 92 766 *;
#X obj 135 739 t b f;
#X floatatom 91 733 5 0 0 0 - - -;
#X obj 91 660 expr $f2 / $f1;
#X obj 280 635 samplerate~;
#X obj 282 613 loadbang;
#X obj 344 612 bng 15 250 50 0 empty empty empty 17 7 0 10 -262144
-1 -1;
#X obj 371 851 random 10;
#X obj 372 894 + 50;
#X floatatom 398 803 10 0 0 0 - - -;
#X text 414 1001 grainDur;
#X text 387 1199 grainSpeed;
#X obj 389 1075 random 10;
#X obj 389 1095 + 200;
#X msg 273 1096 0;
#X text 285 713 playback Rate;
#X obj 86 1366 clone grainModule 16;
#X obj 928 1207 hsl 128 15 0.5 1 0 0 empty empty empty -2 -8 0 10 -191407
-1 -1 0 1;
#X msg 635 1359 next \$1;
#X obj 643 1112 phasor~;
#X obj 642 1174 *~;
#X obj 633 1283 snapshot~;
#X floatatom 737 669 12 0 0 0 - - -;
#X obj 937 840 tgl 15 0 empty empty empty 17 7 0 10 -262144 -1 -1 0
1;
#X obj 937 860 metro 125;
#X obj 643 765 *;
#X obj 686 738 t b f;
#X floatatom 642 732 5 0 0 0 - - -;
#X obj 640 668 expr $f2 / $f1;
#X obj 830 645 samplerate~;
#X obj 830 622 loadbang;
#X obj 894 620 bng 15 250 50 0 empty empty empty 17 7 0 10 -262144
-1 -1;
#X obj 940 884 random 10;
#X obj 940 904 + 50;
#X floatatom 966 836 5 0 0 0 - - -;
#X text 922 1183 grainSpeed;
#X obj 934 1076 random 10;
#X obj 934 1096 + 200;
#X msg 827 1091 0;
#X text 828 716 playback Rate;
#X obj 636 1390 clone grainModule_ch2 16;
#X obj 926 1233 s grainSpeed_ch2;
#X obj 934 1119 s grainDur_ch2;
#X obj 138 717 hsl 128 15 -1 1 0 0 empty empty empty -2 -8 0 10 -4034
-1 -1 12573 1;
#X obj 92 1310 hsl 128 15 0 2.82681e+07 0 0 empty empty empty -2 -8
0 10 -258113 -1 -1 0 1;
#X msg 272 660 range 0 \$1;
#X obj 350 661 s maxSample;
#X obj 133 1095 hsl 128 15 0 1 0 0 empty empty empty -2 -8 0 10 -257985
-1 -1 0 1;
#X obj 636 1331 hsl 128 15 0 2.82681e+07 0 0 empty empty empty -2 -8
0 10 -258113 -1 -1 0 1;
#X obj 687 714 hsl 128 15 -1 1 0 0 empty empty empty -2 -8 0 10 -4034
-1 -1 12573 1;
#X obj 692 1091 hsl 128 15 0 1 0 0 empty empty empty -2 -8 0 10 -257985
-1 -1 0 1;
#X obj 123 937 bng 15 250 50 0 empty empty empty 17 7 0 10 -262144
-1 -1;
#X obj 122 1023 +;
#X obj 203 1276 r maxSample;
#X obj 420 1020 hsl 128 15 0 44100 0 0 empty empty empty -2 -8 0 10
-261234 -1 -1 0 1;
#X text 137 1074 samplePos;
#X obj 442 1056 hsl 128 15 0 44100 0 0 empty empty empty -2 -8 0 10
-203904 -1 -1 0 1;
#X msg 482 1000 range 0 \$1;
#X text 482 1039 random graiDur;
#X text 985 998 grainDur;
#X obj 991 1017 hsl 128 15 0 441 0 0 empty empty empty -2 -8 0 10 -261234
-1 -1 0 1;
#X obj 991 1053 hsl 128 15 0 441 0 0 empty empty empty -2 -8 0 10 -203904
-1 -1 0 1;
#X msg 1053 997 range 0 \$1;
#X text 1031 1036 random graiDur;
#X msg 482 974 44100;
#X msg 527 974 441;
#X obj 390 1046 bng 15 250 50 0 empty empty empty 17 7 0 10 -262144
-1 -1;
#X obj 194 806 hsl 128 15 0 1 0 0 empty empty empty -2 -8 0 10 -232576
-1 -1 0 1;
#X obj 197 833 hsl 128 15 0 1 0 0 empty empty empty -2 -8 0 10 -4032
-1 -1 0 1;
#X obj 335 834 t b;
#X text 195 789 range for sampling;
#X obj 467 855 hsl 128 15 0 2000 0 0 empty empty empty -2 -8 0 10 -260264
-1 -1 0 1;
#X obj 472 892 hsl 128 15 0 2000 0 0 empty empty empty -2 -8 0 10 -167912
-1 -1 0 1;
#X msg 539 835 range 0 \$1;
#X text 512 875 random graiRate;
#X text 471 836 grainRate;
#X obj 1013 873 hsl 128 15 0 500 0 0 empty empty empty -2 -8 0 10 -260264
-1 -1 0 1;
#X obj 1011 908 hsl 128 15 0 500 0 0 empty empty empty -2 -8 0 10 -167912
-1 -1 0 1;
#X msg 1075 853 range 0 \$1;
#X text 1051 891 random graiRate;
#X text 1007 854 grainRate;
#X obj 122 912 spigot;
#X obj 191 889 max;
#X obj 246 888 min;
#X obj 190 861 f;
#X obj 243 861 t b f;
#X obj 191 913 -;
#X obj 121 961 random 10000;
#X obj 122 991 / 10000;
#X obj 680 945 bng 15 250 50 0 empty empty empty 17 7 0 10 -262144
-1 -1;
#X obj 681 1032 +;
#X obj 753 815 hsl 128 15 0 1 0 0 empty empty empty -2 -8 0 10 -232576
-1 -1 0 1;
#X obj 756 842 hsl 128 15 0 1 0 0 empty empty empty -2 -8 0 10 -4032
-1 -1 0 1;
#X obj 894 843 t b;
#X text 754 798 range for sampling;
#X obj 679 891 tgl 15 0 empty empty empty 17 7 0 10 -262144 -1 -1 0
1;
#X obj 680 918 spigot;
#X obj 750 898 max;
#X obj 805 897 min;
#X obj 749 870 f;
#X obj 802 870 t b f;
#X obj 750 921 -;
#X floatatom 805 927 5 0 0 0 - - -;
#X floatatom 860 924 5 0 0 0 - - -;
#X obj 680 970 random 10000;
#X obj 681 1000 / 10000;
#X obj 122 888 tgl 15 0 empty empty empty 17 7 0 10 -262144 -1 -1 0
1;
#X msg 182 739 0;
#X msg 728 739 0;
#X obj 1383 487 soundfiler;
#X floatatom 1383 507 14 0 0 0 - - -;
#X obj 1383 526 s fileSamples2;
#X obj 1379 560 array define grainArray2;
#X obj 737 621 r fileSamples2;
#X msg 821 667 range 0 \$1;
#X obj 895 667 s maxSample2;
#X obj 692 1302 r maxSample2;
#X obj 81 103 adc~ 1;
#X msg 102 502 start;
#X msg 147 503 stop;
#X obj 79 358 *~;
#X obj 150 360 *~;
#X obj 149 102 adc~ 2;
#X obj 78 397 +~;
#X msg 536 518 start;
#X msg 585 519 stop;
#X obj 224 363 *~;
#X obj 79 428 +~;
#X obj 820 163 loadbang;
#X obj 80 528 tabwrite~ grainArray;
#X obj 519 540 tabwrite~ grainArray2;
#X obj 267 212 vsl 15 128 0 1 0 0 empty empty empty 0 -9 0 10 -262144
-1 -1 6350 1;
#X obj 187 213 vsl 15 128 0 1 0 0 empty empty empty 0 -9 0 10 -262144
-1 -1 6350 1;
#X obj 108 214 vsl 15 128 0 1 0 0 empty empty empty 0 -9 0 10 -262144
-1 -1 6350 1;
#X obj 225 102 r~ fb1;
#X obj 521 98 adc~ 1;
#X obj 519 353 *~;
#X obj 590 355 *~;
#X obj 589 97 adc~ 2;
#X obj 518 392 +~;
#X obj 670 352 *~;
#X obj 717 208 vsl 15 128 0 1 0 0 empty empty empty 0 -9 0 10 -262144
-1 -1 6350 1;
#X obj 627 208 vsl 15 128 0 1 0 0 empty empty empty 0 -9 0 10 -262144
-1 -1 6350 1;
#X obj 548 209 vsl 15 128 0 1 0 0 empty empty empty 0 -9 0 10 -262144
-1 -1 6350 1;
#X obj 675 99 r~ fb2;
#X obj 518 427 +~;
#X msg 820 191 0.5;
#X floatatom 133 1283 5 0 0 0 - - -;
#X msg 539 809 2000;
#X msg 584 809 500;
#X obj 150 1448 s~ fb1;
#X obj 683 1483 s~ fb2;
#X text 1536 1734 end of patch;
#X obj 996 671 loadbang;
#X msg 996 699 0.98;
#X obj 1073 671 bng 15 250 50 0 empty empty empty 17 7 0 10 -262144
-1 -1;
#X obj 113 1542 hsl 64 15 0 1 0 0 empty empty empty -2 -8 0 10 -262144
-1 -1 0 1;
#X obj 77 1565 *~;
#X obj 112 1563 hsl 64 15 0 1 0 0 empty knob23 empty -2 -8 0 10 -261234
-1 -1 0 1;
#X obj 190 1561 expr 1 -$f1;
#X obj 96 1591 *~;
#X obj 669 1553 hsl 64 15 0 1 0 0 empty empty empty -2 -8 0 10 -262144
-1 -1 0 1;
#X obj 634 1577 *~;
#X obj 669 1575 hsl 64 15 0 1 0 0 empty knob63 empty -2 -8 0 10 -261234
-1 -1 0 1;
#X obj 747 1573 expr 1 -$f1;
#X obj 643 1603 *~;
#X obj 77 1519 *~;
#X obj 277 1507 vsl 15 128 0 1 0 0 empty empty empty 0 -9 0 10 -262144
-1 -1 6350 1;
#X obj 634 1509 *~;
#X obj 834 1497 vsl 15 128 0 1 0 0 empty empty empty 0 -9 0 10 -262144
-1 -1 6350 1;
#X obj 319 406 *~;
#X obj 769 400 *~;
#X obj 334 347 tgl 15 0 empty empty empty 17 7 0 10 -262144 -1 -1 0
1;
#X obj 881 164 bng 15 250 50 0 empty empty empty 17 7 0 10 -262144
-1 -1;
#X obj 1092 1424 loadbang;
#X msg 1091 1480 0.5;
#X obj 1153 1425 bng 15 250 50 0 empty empty empty 17 7 0 10 -262144
-1 -1;
#X obj 1362 63 MIDIMIX;
#X obj 1156 355 *~;
#X obj 969 207 vsl 15 128 0 1 0 0 empty empty empty 0 -9 0 10 -262144
-1 -1 6350 1;
#X obj 1025 355 *~;
#X obj 1025 386 dac~;
#X obj 969 180 r faderM;
#X obj 109 189 r fader1;
#X obj 188 189 r fader2;
#X obj 269 188 r fader3;
#X obj 549 184 r fader5;
#X obj 628 184 r fader6;
#X obj 718 184 r fader7;
#X obj 275 1477 r fader4;
#X obj 834 1467 r fader8;
#X obj 104 437 r rec1;
#X obj 335 294 r mute1;
#X obj 335 314 expr 1 - $f1;
#X obj 784 343 tgl 15 0 empty empty empty 17 7 0 10 -262144 -1 -1 0
1;
#X obj 785 310 expr 1 - $f1;
#X obj 104 458 sel 1;
#X obj 144 458 sel 0;
#X obj 536 467 sel 1;
#X obj 576 467 sel 0;
#X obj 536 446 r rec5;
#X obj 785 290 r mute5;
#X obj 373 778 r rec2;
#X obj 121 867 r mute2;
#X obj 930 787 r rec6;
#X obj 678 870 r mute6;
#X obj 185 504 s initPhasor1;
#X obj 622 520 s initPhasor2;
#X obj 291 1071 r initPhasor1;
#X obj 827 1068 r initPhasor2;
#X obj 1365 237 sel 1;
#X obj 1367 426 sel 1;
#X obj 210 739 sel 1;
#X obj 757 739 sel 1;
#X obj 250 739 r rec3;
#X obj 797 739 r rec7;
#X obj 275 1043 sel 1;
#X obj 315 1043 r mute3;
#X obj 825 1041 sel 1;
#X obj 865 1041 r mute7;
#X obj 538 787 sel 1;
#X obj 578 787 sel 0;
#X obj 482 955 sel 1;
#X obj 522 955 sel 0;
#X obj 482 934 r rec4;
#X obj 538 766 r mute4;
#X msg 1076 825 2000;
#X msg 1121 825 500;
#X obj 1075 803 sel 1;
#X obj 1115 803 sel 0;
#X msg 1055 974 44100;
#X msg 1100 974 441;
#X obj 1055 955 sel 1;
#X obj 1095 955 sel 0;
#X obj 1075 782 r mute8;
#X obj 1055 934 r rec8;
#X obj 191 933 * 10000;
#X obj 750 941 * 10000;
#X obj 116 805 r knob12;
#X obj 119 833 r knob22;
#X obj 671 814 r knob52;
#X obj 674 842 r knob62;
#X obj 467 764 r knob33;
#X obj 480 787 r knob43;
#X obj 499 817 *;
#X obj 472 816 *;
#X obj 447 979 *;
#X obj 420 978 *;
#X obj 415 926 r knob32;
#X obj 428 949 r knob42;
#X obj 135 694 r knob21;
#X obj 230 694 * 2;
#X obj 190 694 - 0.5;
#X obj 779 691 * 2;
#X obj 739 691 - 0.5;
#X obj 684 691 r knob61;
#X obj 132 1054 r knob11;
#X obj 700 1061 r knob51;
#X obj 1040 831 *;
#X obj 1013 830 *;
#X obj 1008 778 r knob73;
#X obj 1021 801 r knob83;
#X obj 1017 982 *;
#X obj 990 981 *;
#X obj 987 934 r knob72;
#X obj 1000 957 r knob82;
#X obj 403 1157 * 0.5;
#X obj 443 1157 + 0.5;
#X obj 348 1157 r knob31;
#X obj 979 1167 * 0.5;
#X obj 1019 1167 + 0.5;
#X obj 924 1167 r knob71;
#X obj 75 1630 s~ out1ToM1;
#X obj 157 1630 s~ out1ToM2;
#X obj 635 1626 s~ out2ToM1;
#X obj 708 1626 s~ out2ToM2;
#X obj 319 435 s~ in1ToM1;
#X obj 770 430 s~ in2ToM2;
#X obj 1021 210 r~ out1ToM1;
#X obj 1039 235 r~ out2ToM1;
#X obj 1167 207 r~ out1ToM2;
#X obj 1190 228 r~ out2ToM2;
#X obj 1067 257 r~ in1ToM1;
#X obj 1213 253 r~ in2ToM2;
#X obj 1024 284 +~;
#X obj 1025 316 +~;
#X obj 1152 288 +~;
#X obj 1153 320 +~;
#X obj 1303 773 r BaLe;
#X obj 1432 772 r BaRi;
#X obj 1364 86 r solo;
#X obj 1365 128 sel 1;
#X obj 1365 178 sel 0;
#X obj 1302 840 soundfiler;
#X obj 1370 677 sel 1;
#X obj 104 479 t b b;
#X obj 536 488 t b b;
#X msg 1383 449 read -resize empty.wav grainArray2;
#X msg 1381 263 read -resize empty.wav grainArray;
#X obj 1625 296 soundfiler;
#X floatatom 1625 316 14 0 0 0 - - -;
#X obj 1625 335 s fileSamples;
#X obj 1627 482 soundfiler;
#X floatatom 1627 502 14 0 0 0 - - -;
#X obj 1627 521 s fileSamples2;
#X msg 1625 258 read -resize empty.wav out1;
#X msg 1627 444 read -resize empty.wav out2;
#X obj 1621 369 array define out1;
#X obj 1623 555 array define out2;
#X msg 1302 798 write -wave rec1 out1;
#X msg 1429 819 write -wave rec2 out2;
#X msg 1017 442 start;
#X msg 1063 424 stop;
#X msg 1154 443 start;
#X msg 1201 419 stop;
#X obj 995 468 tabwrite~ out1;
#X obj 1137 465 tabwrite~ out2;
#X obj 1367 400 sel 0;
#X obj 381 1444 log 2;
#X obj 427 1378 expr 1 / $f1;
#X obj 379 1378 random;
#X obj 380 1402 *;
#X obj 381 1424 + 1;
#X obj 423 1357 + 1;
#X obj 391 1264 hsl 128 15 2 64 0 0 empty empty empty -2 -8 0 10 -191407
-1 -1 0 1;
#X obj 422 1333 int;
#X obj 377 1357 spigot;
#X obj 377 1333 tgl 15 0 empty empty empty 17 7 0 10 -262144 -1 -1
0 1;
#X obj 391 1288 t b;
#X msg 391 1308 1;
#X obj 424 1288 t b;
#X msg 424 1308 0;
#X obj 346 1176 r knob41;
#X obj 401 1176 * 64;
#X obj 980 1147 * 64;
#X obj 925 1147 r knob81;
#X obj 920 1438 log 2;
#X obj 966 1367 expr 1 / $f1;
#X obj 918 1367 random;
#X obj 919 1391 *;
#X obj 920 1413 + 1;
#X obj 962 1346 + 1;
#X obj 930 1253 hsl 128 15 2 64 0 0 empty empty empty -2 -8 0 10 -191407
-1 -1 0 1;
#X floatatom 960 1424 5 0 0 0 - - -;
#X obj 961 1322 int;
#X obj 916 1346 spigot;
#X obj 916 1322 tgl 15 0 empty empty empty 17 7 0 10 -262144 -1 -1
0 1;
#X obj 930 1277 t b;
#X msg 930 1297 1;
#X obj 963 1277 t b;
#X msg 963 1297 0;
#X obj 360 1306 bng 15 250 50 0 empty empty empty 17 7 0 10 -262144
-1 -1;
#X floatatom 454 1292 5 0 0 0 - - -;
#X obj 381 1464 * 0.5;
#X obj 381 1484 + 0.5;
#X floatatom 381 1504 5 0 0 0 - - -;
#X obj 930 1466 * 0.5;
#X obj 930 1486 + 0.5;
#X floatatom 930 1506 5 0 0 0 - - -;
#X obj 892 1377 bng 15 250 50 0 empty empty empty 17 7 0 10 -262144
-1 -1;
#X obj 180 1125 bng 15 250 50 0 empty empty empty 17 7 0 10 -262144
-1 -1;
#X obj 718 1117 bng 15 250 50 0 empty empty empty 17 7 0 10 -262144
-1 -1;
#X obj 112 1195 playBack;
#X obj 85 1441 +~;
#X obj 205 1201 hsl 128 15 0 1 0 0 empty knob13 empty -2 -8 0 10 -262144
-1 -1 0 1;
#X obj 202 1225 expr 1 - $f1;
#X obj 201 1346 hsl 128 15 0 1 0 0 empty empty empty -2 -8 0 10 -262144
-1 -1 0 1;
#X obj 112 1224 *~;
#X obj 85 1393 *~;
#X obj 675 1197 playBack2;
#X obj 757 1211 hsl 128 15 0 1 0 0 empty knob53 empty -2 -8 0 10 -262144
-1 -1 0 1;
#X obj 754 1235 expr 1 - $f1;
#X obj 753 1356 hsl 128 15 0 1 0 0 empty empty empty -2 -8 0 10 -262144
-1 -1 0 1;
#X obj 674 1233 *~;
#X obj 635 1421 *~;
#X obj 636 1451 +~;
#X text 1414 235 Put an empty.wav file of the lenght you want in the
folder;
#X connect 1 0 2 0;
#X connect 2 0 13 0;
#X connect 3 0 5 0;
#X connect 3 0 347 0;
#X connect 8 0 33 0;
#X connect 9 0 10 0;
#X connect 10 0 11 0;
#X connect 10 0 379 0;
#X connect 11 0 61 0;
#X connect 11 0 164 0;
#X connect 12 0 14 0;
#X connect 12 0 20 0;
#X connect 14 0 10 1;
#X connect 14 0 62 0;
#X connect 15 0 16 0;
#X connect 16 0 11 0;
#X connect 16 0 24 0;
#X connect 16 0 29 0;
#X connect 16 0 98 0;
#X connect 16 0 343 0;
#X connect 17 0 9 0;
#X connect 18 0 17 0;
#X connect 18 1 17 1;
#X connect 19 0 17 0;
#X connect 20 0 19 0;
#X connect 21 0 20 1;
#X connect 22 0 21 0;
#X connect 23 0 21 0;
#X connect 24 0 25 0;
#X connect 25 0 26 0;
#X connect 26 0 16 1;
#X connect 29 0 30 0;
#X connect 30 0 4 0;
#X connect 31 0 9 1;
#X connect 31 0 377 0;
#X connect 33 0 385 0;
#X connect 34 0 58 0;
#X connect 34 0 366 0;
#X connect 35 0 57 0;
#X connect 36 0 37 0;
#X connect 37 0 38 0;
#X connect 37 0 386 0;
#X connect 38 0 65 0;
#X connect 39 0 37 1;
#X connect 39 0 131 0;
#X connect 40 0 41 0;
#X connect 41 0 38 0;
#X connect 41 0 49 0;
#X connect 41 0 53 0;
#X connect 41 0 113 0;
#X connect 41 0 362 0;
#X connect 42 0 36 0;
#X connect 43 0 42 0;
#X connect 43 1 42 1;
#X connect 44 0 42 0;
#X connect 45 0 44 0;
#X connect 46 0 45 1;
#X connect 47 0 46 0;
#X connect 48 0 46 0;
#X connect 49 0 50 0;
#X connect 50 0 51 0;
#X connect 51 0 41 1;
#X connect 53 0 54 0;
#X connect 54 0 59 0;
#X connect 55 0 36 1;
#X connect 55 0 378 0;
#X connect 57 0 391 0;
#X connect 60 0 18 0;
#X connect 61 0 8 0;
#X connect 62 0 63 0;
#X connect 64 0 9 1;
#X connect 64 0 377 0;
#X connect 65 0 35 0;
#X connect 66 0 43 0;
#X connect 67 0 36 1;
#X connect 67 0 378 0;
#X connect 68 0 104 0;
#X connect 69 0 64 0;
#X connect 70 0 61 0;
#X connect 71 0 30 1;
#X connect 73 0 29 1;
#X connect 74 0 71 0;
#X connect 74 0 73 0;
#X connect 77 0 54 1;
#X connect 78 0 53 1;
#X connect 79 0 77 0;
#X connect 79 0 78 0;
#X connect 81 0 74 0;
#X connect 81 0 264 1;
#X connect 81 0 263 1;
#X connect 82 0 74 0;
#X connect 82 0 264 1;
#X connect 82 0 263 1;
#X connect 83 0 29 0;
#X connect 84 0 101 0;
#X connect 85 0 86 0;
#X connect 85 0 102 0;
#X connect 88 0 25 1;
#X connect 89 0 24 1;
#X connect 90 0 88 0;
#X connect 90 0 89 0;
#X connect 93 0 50 1;
#X connect 94 0 49 1;
#X connect 95 0 93 0;
#X connect 95 0 94 0;
#X connect 98 0 68 0;
#X connect 99 0 103 0;
#X connect 100 0 103 1;
#X connect 100 0 69 1;
#X connect 101 0 99 0;
#X connect 101 0 100 0;
#X connect 102 0 101 0;
#X connect 102 1 100 1;
#X connect 102 1 99 1;
#X connect 103 0 253 0;
#X connect 104 0 105 0;
#X connect 105 0 69 0;
#X connect 106 0 121 0;
#X connect 107 0 67 0;
#X connect 108 0 116 0;
#X connect 109 0 110 0;
#X connect 109 0 117 0;
#X connect 112 0 113 1;
#X connect 113 0 106 0;
#X connect 114 0 118 0;
#X connect 114 0 119 0;
#X connect 115 0 118 1;
#X connect 115 0 120 0;
#X connect 115 0 107 1;
#X connect 116 0 114 0;
#X connect 116 0 115 0;
#X connect 117 0 116 0;
#X connect 117 1 115 1;
#X connect 117 1 114 1;
#X connect 118 0 254 0;
#X connect 121 0 122 0;
#X connect 122 0 107 0;
#X connect 123 0 98 1;
#X connect 124 0 60 0;
#X connect 125 0 66 0;
#X connect 126 0 127 0;
#X connect 127 0 128 0;
#X connect 130 0 39 0;
#X connect 130 0 45 0;
#X connect 131 0 132 0;
#X connect 133 0 65 0;
#X connect 134 0 137 0;
#X connect 135 0 146 0;
#X connect 136 0 146 0;
#X connect 137 0 140 0;
#X connect 138 0 140 1;
#X connect 139 0 138 0;
#X connect 140 0 144 0;
#X connect 140 0 187 0;
#X connect 141 0 147 0;
#X connect 142 0 147 0;
#X connect 143 0 144 1;
#X connect 144 0 146 0;
#X connect 145 0 163 0;
#X connect 148 0 143 1;
#X connect 149 0 138 1;
#X connect 150 0 137 1;
#X connect 151 0 143 0;
#X connect 152 0 153 0;
#X connect 153 0 156 0;
#X connect 154 0 156 1;
#X connect 155 0 154 0;
#X connect 156 0 162 0;
#X connect 156 0 188 0;
#X connect 157 0 162 1;
#X connect 158 0 157 1;
#X connect 159 0 154 1;
#X connect 160 0 153 1;
#X connect 161 0 157 0;
#X connect 162 0 147 0;
#X connect 163 0 150 0;
#X connect 163 0 149 0;
#X connect 163 0 148 0;
#X connect 163 0 160 0;
#X connect 163 0 159 0;
#X connect 163 0 158 0;
#X connect 163 0 196 0;
#X connect 165 0 90 0;
#X connect 165 0 261 1;
#X connect 165 0 262 1;
#X connect 166 0 90 0;
#X connect 166 0 261 1;
#X connect 166 0 262 1;
#X connect 170 0 171 0;
#X connect 171 0 66 0;
#X connect 171 0 60 0;
#X connect 172 0 171 0;
#X connect 173 0 174 1;
#X connect 174 0 289 0;
#X connect 175 0 176 0;
#X connect 175 0 177 1;
#X connect 176 0 173 0;
#X connect 177 0 290 0;
#X connect 178 0 179 1;
#X connect 179 0 291 0;
#X connect 180 0 181 0;
#X connect 180 0 182 1;
#X connect 181 0 178 0;
#X connect 182 0 292 0;
#X connect 183 0 174 0;
#X connect 183 0 177 0;
#X connect 184 0 183 1;
#X connect 185 0 179 0;
#X connect 185 0 182 0;
#X connect 186 0 185 1;
#X connect 187 0 293 0;
#X connect 188 0 294 0;
#X connect 189 0 187 1;
#X connect 190 0 163 0;
#X connect 191 0 192 0;
#X connect 192 0 186 0;
#X connect 192 0 184 0;
#X connect 193 0 192 0;
#X connect 195 0 198 1;
#X connect 195 0 333 0;
#X connect 196 0 195 1;
#X connect 196 0 197 1;
#X connect 197 0 198 0;
#X connect 197 0 332 0;
#X connect 199 0 196 0;
#X connect 200 0 150 0;
#X connect 201 0 149 0;
#X connect 202 0 148 0;
#X connect 203 0 160 0;
#X connect 204 0 159 0;
#X connect 205 0 158 0;
#X connect 206 0 184 0;
#X connect 207 0 186 0;
#X connect 208 0 213 0;
#X connect 208 0 214 0;
#X connect 209 0 210 0;
#X connect 210 0 189 0;
#X connect 211 0 188 1;
#X connect 212 0 211 0;
#X connect 213 0 312 0;
#X connect 214 0 136 0;
#X connect 215 0 313 0;
#X connect 216 0 142 0;
#X connect 217 0 215 0;
#X connect 217 0 216 0;
#X connect 218 0 212 0;
#X connect 219 0 15 0;
#X connect 220 0 123 0;
#X connect 221 0 40 0;
#X connect 222 0 112 0;
#X connect 225 0 31 0;
#X connect 226 0 55 0;
#X connect 227 0 315 0;
#X connect 227 0 322 0;
#X connect 228 0 314 0;
#X connect 228 0 323 0;
#X connect 228 0 330 0;
#X connect 228 0 328 0;
#X connect 229 0 124 0;
#X connect 230 0 125 0;
#X connect 231 0 229 0;
#X connect 232 0 230 0;
#X connect 233 0 31 0;
#X connect 234 0 233 0;
#X connect 235 0 55 0;
#X connect 236 0 235 0;
#X connect 237 0 166 0;
#X connect 238 0 165 0;
#X connect 239 0 82 0;
#X connect 240 0 81 0;
#X connect 241 0 239 0;
#X connect 241 0 240 0;
#X connect 242 0 237 0;
#X connect 242 0 238 0;
#X connect 243 0 95 0;
#X connect 243 0 276 1;
#X connect 243 0 275 1;
#X connect 244 0 95 0;
#X connect 244 0 275 1;
#X connect 244 0 276 1;
#X connect 245 0 244 0;
#X connect 246 0 243 0;
#X connect 247 0 79 0;
#X connect 247 0 280 1;
#X connect 247 0 279 1;
#X connect 248 0 79 0;
#X connect 248 0 279 1;
#X connect 248 0 280 1;
#X connect 249 0 248 0;
#X connect 250 0 247 0;
#X connect 251 0 245 0;
#X connect 251 0 246 0;
#X connect 252 0 249 0;
#X connect 252 0 250 0;
#X connect 253 0 104 1;
#X connect 254 0 121 1;
#X connect 255 0 84 0;
#X connect 256 0 85 0;
#X connect 257 0 108 0;
#X connect 258 0 109 0;
#X connect 259 0 262 0;
#X connect 260 0 261 0;
#X connect 261 0 89 0;
#X connect 262 0 88 0;
#X connect 263 0 73 0;
#X connect 264 0 71 0;
#X connect 265 0 264 0;
#X connect 266 0 263 0;
#X connect 267 0 269 0;
#X connect 268 0 60 0;
#X connect 269 0 268 0;
#X connect 270 0 66 0;
#X connect 271 0 270 0;
#X connect 272 0 271 0;
#X connect 273 0 64 0;
#X connect 274 0 67 0;
#X connect 275 0 94 0;
#X connect 276 0 93 0;
#X connect 277 0 276 0;
#X connect 278 0 275 0;
#X connect 279 0 78 0;
#X connect 280 0 77 0;
#X connect 281 0 280 0;
#X connect 282 0 279 0;
#X connect 283 0 284 0;
#X connect 284 0 3 0;
#X connect 285 0 283 0;
#X connect 286 0 287 0;
#X connect 287 0 34 0;
#X connect 288 0 286 0;
#X connect 295 0 301 0;
#X connect 296 0 301 1;
#X connect 297 0 303 0;
#X connect 298 0 303 1;
#X connect 299 0 302 1;
#X connect 300 0 304 1;
#X connect 301 0 302 0;
#X connect 302 0 197 0;
#X connect 303 0 304 0;
#X connect 304 0 195 0;
#X connect 305 0 326 0;
#X connect 306 0 327 0;
#X connect 307 0 308 0;
#X connect 307 0 309 0;
#X connect 307 0 227 0;
#X connect 307 0 228 0;
#X connect 307 0 311 0;
#X connect 307 0 334 0;
#X connect 308 0 6 0;
#X connect 309 0 7 0;
#X connect 311 0 171 0;
#X connect 312 0 223 0;
#X connect 312 1 135 0;
#X connect 313 0 224 0;
#X connect 313 1 141 0;
#X connect 314 0 126 0;
#X connect 315 0 1 0;
#X connect 316 0 317 0;
#X connect 317 0 318 0;
#X connect 319 0 320 0;
#X connect 320 0 321 0;
#X connect 322 0 316 0;
#X connect 323 0 319 0;
#X connect 326 0 310 0;
#X connect 327 0 310 0;
#X connect 328 0 332 0;
#X connect 329 0 332 0;
#X connect 330 0 333 0;
#X connect 331 0 333 0;
#X connect 334 0 331 0;
#X connect 334 0 329 0;
#X connect 335 0 370 0;
#X connect 336 0 338 1;
#X connect 337 0 338 0;
#X connect 338 0 339 0;
#X connect 339 0 335 0;
#X connect 340 0 337 1;
#X connect 341 0 342 0;
#X connect 341 0 345 0;
#X connect 341 0 369 0;
#X connect 342 0 340 0;
#X connect 342 0 336 0;
#X connect 343 0 337 0;
#X connect 344 0 343 1;
#X connect 345 0 346 0;
#X connect 346 0 344 0;
#X connect 347 0 348 0;
#X connect 348 0 344 0;
#X connect 349 0 350 0;
#X connect 350 0 341 0;
#X connect 351 0 359 0;
#X connect 352 0 351 0;
#X connect 353 0 373 0;
#X connect 354 0 356 1;
#X connect 355 0 356 0;
#X connect 356 0 357 0;
#X connect 357 0 353 0;
#X connect 357 0 360 0;
#X connect 358 0 355 1;
#X connect 359 0 361 0;
#X connect 359 0 364 0;
#X connect 361 0 358 0;
#X connect 361 0 354 0;
#X connect 362 0 355 0;
#X connect 363 0 362 1;
#X connect 364 0 365 0;
#X connect 365 0 363 0;
#X connect 366 0 367 0;
#X connect 367 0 363 0;
#X connect 368 0 337 0;
#X connect 370 0 371 0;
#X connect 371 0 372 0;
#X connect 371 0 5 0;
#X connect 373 0 374 0;
#X connect 374 0 375 0;
#X connect 374 0 58 0;
#X connect 376 0 355 0;
#X connect 377 0 379 1;
#X connect 378 0 386 1;
#X connect 379 0 384 0;
#X connect 380 0 167 0;
#X connect 380 0 183 0;
#X connect 381 0 382 0;
#X connect 381 0 384 1;
#X connect 382 0 383 0;
#X connect 383 0 385 1;
#X connect 384 0 380 0;
#X connect 385 0 380 1;
#X connect 386 0 390 0;
#X connect 387 0 388 0;
#X connect 387 0 390 1;
#X connect 388 0 389 0;
#X connect 389 0 391 1;
#X connect 390 0 392 1;
#X connect 391 0 392 0;
#X connect 392 0 185 0;
#X connect 392 0 168 0;
