#N canvas 524 152 450 300 10;
#X obj 114 77 inlet;
#X obj 177 77 inlet;
#X obj 236 78 inlet;
#X obj 299 78 inlet;
#X obj 55 77 inlet;
#X obj 115 120 - 0;
#X obj 237 162 - 0;
#X obj 113 158 / 1;
#X obj 58 194 * 1;
#X obj 57 234 + 0;
#X text 107 26 min In;
#X text 168 25 max In;
#X text 226 31 min Out;
#X text 297 30 max Out;
#X text 52 35 in;
#X obj 52 267 outlet;
#X obj 303 120 t b f;
#X obj 235 113 t b f;
#X msg 114 49 \$1;
#X msg 187 51 \$2;
#X msg 233 48 \$3;
#X msg 302 51 \$4;
#X connect 0 0 5 1;
#X connect 1 0 5 0;
#X connect 2 0 17 0;
#X connect 3 0 16 0;
#X connect 4 0 8 0;
#X connect 5 0 7 1;
#X connect 6 0 7 0;
#X connect 7 0 8 1;
#X connect 8 0 9 0;
#X connect 9 0 15 0;
#X connect 16 0 6 0;
#X connect 16 1 6 0;
#X connect 17 0 6 0;
#X connect 17 0 9 0;
#X connect 17 1 9 1;
#X connect 17 1 6 1;
#X connect 18 0 5 1;
#X connect 19 0 5 0;
#X connect 20 0 17 0;
#X connect 21 0 16 0;
